<svg xmlns="http://www.w3.org/2000/svg" width="95" height="95" fill="none" viewBox="0 0 95 95"><g fill="#7B9E87" clip-path="url(#a)"><path d="M42.967 85.216a42.077 42.077 0 0 0 8.751-.926 23.5 23.5 0 1 0 32.623-32.622 42.3 42.3 0 1 0-41.374 33.548Zm32.452-37.194a23.415 23.415 0 0 0-27.345 27.357 33.626 33.626 0 0 1-5.107.437 32.9 32.9 0 1 1 32.9-32.9 32.587 32.587 0 0 1-.448 5.106Zm16.114 23.094A20.366 20.366 0 1 1 71.167 50.75a20.39 20.39 0 0 1 20.366 20.366ZM42.967 3.75a39.176 39.176 0 0 1 38.516 46.284 23.546 23.546 0 0 0-2.977-1.23 36.034 36.034 0 1 0-35.54 30.146 36.796 36.796 0 0 0 5.893-.49 23.41 23.41 0 0 0 1.225 2.977A39.165 39.165 0 0 1 5.874 30.45a39.167 39.167 0 0 1 37.093-26.7Z"/><path d="M42.967 17.85a1.566 1.566 0 0 0 1.566-1.567v-1.567a1.567 1.567 0 0 0-3.133 0v1.567a1.567 1.567 0 0 0 1.567 1.566ZM30.223 17.71a1.566 1.566 0 0 0-2.713 1.567l.783 1.356a1.567 1.567 0 1 0 2.714-1.566l-.784-1.357ZM20.684 28.243l-1.357-.783a1.567 1.567 0 0 0-1.566 2.713l1.356.783a1.567 1.567 0 1 0 1.567-2.713ZM17.9 42.916a1.566 1.566 0 0 0-1.567-1.566h-1.566a1.567 1.567 0 0 0 0 3.133h1.566a1.566 1.566 0 0 0 1.567-1.567ZM19.117 54.876l-1.356.784a1.566 1.566 0 1 0 1.566 2.713l1.357-.783a1.566 1.566 0 1 0-1.567-2.714ZM30.433 64.624a1.567 1.567 0 0 0-2.14.575l-.783 1.357a1.567 1.567 0 1 0 2.713 1.566l.784-1.356a1.568 1.568 0 0 0-.574-2.142ZM42.967 67.983A1.567 1.567 0 0 0 41.4 69.55v1.566a1.567 1.567 0 0 0 3.133 0V69.55a1.567 1.567 0 0 0-1.566-1.567ZM68.033 42.916a1.567 1.567 0 0 0 1.567 1.567h1.567a1.567 1.567 0 1 0 0-3.133H69.6a1.567 1.567 0 0 0-1.567 1.566ZM64.674 30.383a1.566 1.566 0 0 0 2.142.573l1.357-.783a1.567 1.567 0 0 0-1.567-2.713l-1.357.783a1.567 1.567 0 0 0-.575 2.14ZM57.85 17.137a1.567 1.567 0 0 0-2.14.573l-.783 1.357a1.567 1.567 0 1 0 2.713 1.566l.783-1.356a1.566 1.566 0 0 0-.573-2.14ZM48.86 44.967c.24-.658.366-1.351.373-2.05a6.267 6.267 0 0 0-4.7-6.045V22.55a1.567 1.567 0 0 0-3.133 0v14.322a6.252 6.252 0 0 0-2.13 11.125 6.25 6.25 0 0 0 7.851-.425l4.378 2.914a1.567 1.567 0 1 0 1.736-2.607l-4.374-2.912Zm-5.893 1.083a3.133 3.133 0 1 1 0-6.267 3.133 3.133 0 0 1 0 6.267ZM60.2 66.416a1.567 1.567 0 0 0 3.133 0 7.834 7.834 0 1 1 7.834 7.833 1.567 1.567 0 0 0-1.567 1.567v3.133a1.567 1.567 0 0 0 3.133 0v-1.677A10.967 10.967 0 1 0 60.2 66.416ZM71.167 83.447a1.567 1.567 0 0 0-1.567 1.567v.202a1.567 1.567 0 0 0 3.133 0v-.202a1.567 1.567 0 0 0-1.566-1.567Z"/></g><defs><clipPath id="a"><path fill="#fff" d="M.667.616h94v94h-94z"/></clipPath></defs></svg>