<svg xmlns="http://www.w3.org/2000/svg" width="95" height="95" fill="none" viewBox="0 0 95 95"><path fill="#7B9E87" d="M47.333 72.585c-13.762 0-24.968-11.207-24.968-24.969S33.57 22.648 47.332 22.648c.808 0 1.469-.662 1.469-1.47V5.023c0-.807-.66-1.468-1.469-1.468h-7.74c-.676 0-1.263.455-1.425 1.116l-2.1 8.43a36.386 36.386 0 0 0-5.17 2.13l-7.447-4.465a1.466 1.466 0 0 0-1.791.22L10.717 21.929a1.466 1.466 0 0 0-.22 1.792l4.465 7.446a34.745 34.745 0 0 0-2.13 5.17l-8.43 2.1c-.661.162-1.117.75-1.117 1.425v15.48c0 .676.456 1.264 1.117 1.425l8.43 2.1a36.386 36.386 0 0 0 2.13 5.17l-4.465 7.447a1.466 1.466 0 0 0 .22 1.792L21.66 84.217c.47.47 1.219.573 1.791.22l7.447-4.464a34.756 34.756 0 0 0 5.17 2.13l2.1 8.43c.162.661.75 1.116 1.425 1.116h7.74c.808 0 1.469-.66 1.469-1.468V74.024c0-.808-.66-1.468-1.469-1.468v.029Zm-1.468 16.156h-5.126l-2.027-8.122a1.536 1.536 0 0 0-.999-1.058 32.605 32.605 0 0 1-6.169-2.54 1.467 1.467 0 0 0-1.454.029l-7.167 4.303-9.327-9.326 4.303-7.168c.265-.44.28-.998.03-1.454a32.605 32.605 0 0 1-2.541-6.169 1.43 1.43 0 0 0-1.057-.998L6.208 54.21V41.02l8.123-2.026c.499-.133.895-.514 1.057-1a32.605 32.605 0 0 1 2.54-6.168 1.467 1.467 0 0 0-.029-1.454l-4.303-7.167 9.327-9.327 7.167 4.304c.44.264.999.279 1.454.029a32.605 32.605 0 0 1 6.169-2.541c.5-.147.881-.543.999-1.058l2.027-8.122h5.126v13.263c-14.703.764-26.438 12.97-26.438 27.862 0 14.893 11.735 27.099 26.438 27.862v13.263Z"/><path fill="#7B9E87" d="M47.333 27.054c-11.338 0-20.562 9.224-20.562 20.562 0 11.339 9.224 20.563 20.562 20.563 11.339 0 20.563-9.224 20.563-20.563 0-11.338-9.224-20.562-20.563-20.562Zm17.082 16.303c-2.497-1.307-6.125-2.203-10.15-2.673-.47-4.025-1.365-7.638-2.672-10.15a17.642 17.642 0 0 1 12.822 12.823Zm-9.87 8.21a58.779 58.779 0 0 0 0-7.902c6.58.867 10.413 2.776 10.413 3.951 0 1.175-3.819 3.085-10.413 3.951Zm-7.212 13.674c-1.175 0-3.084-3.819-3.95-10.413a58.85 58.85 0 0 0 7.901 0c-.866 6.58-2.776 10.413-3.95 10.413Zm0-13.218c-1.498 0-2.922-.06-4.244-.162a55.223 55.223 0 0 1-.162-4.245c0-1.498.059-2.923.162-4.245a55.225 55.225 0 0 1 4.244-.161c1.498 0 2.923.059 4.245.161.103 1.337.161 2.747.161 4.245 0 1.498-.058 2.923-.161 4.245a55.223 55.223 0 0 1-4.245.162Zm-17.625-4.407c0-1.175 3.819-3.084 10.414-3.95a58.847 58.847 0 0 0 0 7.901c-6.58-.866-10.414-2.776-10.414-3.95Zm17.625-17.625c1.175 0 3.085 3.819 3.951 10.414a58.847 58.847 0 0 0-7.902 0c.867-6.58 2.776-10.414 3.951-10.414Zm-4.26.544c-1.306 2.497-2.202 6.124-2.672 10.149-4.025.47-7.638 1.366-10.15 2.673a17.642 17.642 0 0 1 12.823-12.822Zm-12.821 21.34c2.497 1.308 6.124 2.204 10.149 2.674.47 4.024 1.366 7.637 2.673 10.149a17.642 17.642 0 0 1-12.822-12.822Zm21.34 12.823c1.308-2.497 2.204-6.125 2.674-10.15 4.024-.47 7.637-1.365 10.149-2.672a17.642 17.642 0 0 1-12.822 12.822ZM86.99 43.21c-1.91 0-3.525 1.234-4.142 2.938H72.302c-.808 0-1.469.66-1.469 1.468 0 .808.661 1.469 1.469 1.469h10.546a4.393 4.393 0 0 0 4.142 2.938 4.42 4.42 0 0 0 4.406-4.407 4.42 4.42 0 0 0-4.406-4.406Zm0 5.875a1.473 1.473 0 0 1-1.47-1.469c0-.808.662-1.468 1.47-1.468.807 0 1.468.66 1.468 1.468 0 .808-.66 1.469-1.468 1.469ZM53.208 19.71h8.813c.558 0 1.072-.309 1.307-.808l2.526-5.067h6.712a4.393 4.393 0 0 0 4.142 2.938 4.42 4.42 0 0 0 4.407-4.407 4.42 4.42 0 0 0-4.407-4.406c-1.91 0-3.525 1.234-4.142 2.938h-7.608c-.558 0-1.072.308-1.307.807l-2.526 5.068h-7.902c-.808 0-1.469.66-1.469 1.468 0 .808.661 1.469 1.469 1.469h-.015Zm23.5-8.813c.808 0 1.469.661 1.469 1.47 0 .807-.66 1.468-1.469 1.468a1.473 1.473 0 0 1-1.468-1.469c0-.808.66-1.468 1.468-1.468ZM76.708 78.46c-1.91 0-3.525 1.234-4.142 2.938h-6.712l-2.526-5.068c-.25-.5-.764-.808-1.307-.808h-8.813c-.807 0-1.468.661-1.468 1.47 0 .807.66 1.468 1.468 1.468h7.902l2.526 5.067c.25.5.764.808 1.308.808h7.608a4.393 4.393 0 0 0 4.142 2.938 4.42 4.42 0 0 0 4.406-4.407 4.42 4.42 0 0 0-4.406-4.406h.014Zm0 5.875a1.473 1.473 0 0 1-1.468-1.469c0-.808.66-1.469 1.468-1.469.808 0 1.469.661 1.469 1.47 0 .807-.66 1.468-1.469 1.468ZM84.052 62.304c-1.91 0-3.525 1.233-4.142 2.937h-3.613l-1.13-3.407a1.469 1.469 0 0 0-1.396-.999h-5.875c-.808 0-1.469.66-1.469 1.469 0 .807.661 1.468 1.469 1.468h4.817l1.131 3.408c.206.602.764.999 1.396.999h4.67a4.392 4.392 0 0 0 4.142 2.937 4.42 4.42 0 0 0 4.406-4.406 4.42 4.42 0 0 0-4.406-4.406Zm0 5.875c-.808 0-1.469-.661-1.469-1.469s.661-1.469 1.469-1.469 1.469.661 1.469 1.469-.661 1.469-1.469 1.469ZM79.91 27.054h-4.67c-.632 0-1.19.411-1.396.998l-1.13 3.408h-4.818c-.808 0-1.469.66-1.469 1.469 0 .807.661 1.468 1.469 1.468h5.875c.631 0 1.19-.41 1.395-.998l1.131-3.408h3.613a4.392 4.392 0 0 0 4.142 2.938 4.42 4.42 0 0 0 4.406-4.407 4.42 4.42 0 0 0-4.406-4.406c-1.91 0-3.525 1.234-4.142 2.938Zm4.142 0c.808 0 1.469.66 1.469 1.469 0 .807-.661 1.468-1.469 1.468s-1.469-.66-1.469-1.468c0-.808.661-1.47 1.469-1.47Z"/></svg>