<svg xmlns="http://www.w3.org/2000/svg" width="94" height="95" fill="none" viewBox="0 0 94 95"><g fill="#7B9E87" clip-path="url(#a)"><path d="M41.165 68.803 26.646 43.656a8.672 8.672 0 0 0-5.3-4.067 8.656 8.656 0 0 0-5.726.422V14.858C15.62 7.005 9.232.616 1.378.616H0V60.95l9.005 17.642v4.538H5.329v11.486h2.757v-8.73h33.998v8.73h2.757V83.13h-3.676V68.803ZM38.408 83.13H11.761v-5.2L2.757 60.286V3.455c5.685.682 10.107 5.536 10.107 11.403v27.043c-2.681 2.727-3.34 7.014-1.337 10.484l7.91 13.7 2.387-1.378-7.91-13.7a5.979 5.979 0 0 1 2.186-8.158 5.98 5.98 0 0 1 8.159 2.185l14.15 24.508V83.13ZM93.908 60.95V.616H92.53c-7.853 0-14.242 6.39-14.242 14.242v25.153c-4.01-1.739-8.79-.23-11.026 3.645L52.743 68.803V83.13h-3.675v11.486h2.756v-8.73h33.998v8.73h2.757V83.13h-3.675v-4.538l9.004-17.642ZM82.147 77.93v5.2H55.5V69.542l14.15-24.508a5.93 5.93 0 0 1 3.625-2.782 5.934 5.934 0 0 1 4.533.596 5.979 5.979 0 0 1 2.186 8.159l-7.91 13.7 2.387 1.378 7.91-13.7c2.003-3.47 1.344-7.756-1.337-10.484V14.858c0-5.867 4.421-10.72 10.107-11.403v56.832l-9.004 17.642Z"/><path d="M67.629 36.911V5.671A5.06 5.06 0 0 0 62.575.615h-17v5.421h-.643a5.611 5.611 0 0 0-5.604 5.606 5.611 5.611 0 0 0 5.604 5.605h.644v2.664h-5.421v3.4a2.852 2.852 0 0 1-2.849 2.849 2.852 2.852 0 0 1-2.848-2.849v-3.4H26.28v17a5.06 5.06 0 0 0 5.054 5.053h31.24a5.06 5.06 0 0 0 5.055-5.054Zm-22.697-22.42a2.852 2.852 0 0 1-2.848-2.848 2.852 2.852 0 0 1 2.848-2.849h3.4V3.373h14.243a2.3 2.3 0 0 1 2.297 2.297v14.242h-2.665v-.643a5.611 5.611 0 0 0-5.605-5.605 5.611 5.611 0 0 0-5.605 5.605v.643h-2.664v-5.42h-3.4Zm.644 19.296v5.422H31.334a2.3 2.3 0 0 1-2.297-2.298V22.67H31.7v.643a5.611 5.611 0 0 0 5.605 5.606 5.611 5.611 0 0 0 5.605-5.606v-.643h2.665v5.421h3.583a2.852 2.852 0 0 1 2.849 2.849 2.852 2.852 0 0 1-2.849 2.848h-3.583Zm2.757 2.757h.826a5.611 5.611 0 0 0 5.606-5.605 5.611 5.611 0 0 0-5.606-5.605h-.826v-2.665h5.42v-3.4a2.851 2.851 0 0 1 2.85-2.848 2.851 2.851 0 0 1 2.848 2.848v3.4h5.42v14.242a2.3 2.3 0 0 1-2.296 2.298H48.333v-2.665ZM40.063 46.927h2.756v2.757h-2.756v-2.757ZM45.576 46.927h2.757v2.757h-2.757v-2.757ZM51.09 46.927h2.755v2.757H51.09v-2.757ZM31.7 68.95l2.388-1.378 1.379 2.387-2.388 1.379-1.378-2.388ZM27.5 61.674l2.386-1.378 2.824 4.89-2.388 1.378-2.822-4.89ZM85.454 23.313h2.757v2.756h-2.757v-2.756ZM85.454 11.367h2.757v9.188h-2.757v-9.188ZM85.454 28.825h2.757v2.757h-2.757v-2.757ZM34.733 88.919h2.757v2.757h-2.757v-2.757ZM29.22 88.919h2.757v2.757H29.22v-2.757ZM56.419 88.919h2.756v2.757H56.42v-2.757ZM61.931 88.919h2.757v2.757h-2.757v-2.757Z"/><path d="M59.359 6.13h2.757v2.756h-2.757V6.13Z"/></g><defs><clipPath id="a"><path fill="#fff" d="M0 .616h94v94H0z"/></clipPath></defs></svg>