<svg xmlns="http://www.w3.org/2000/svg" width="95" height="95" fill="none" viewBox="0 0 95 95"><path fill="#7B9E87" d="M6.492 63.677A43.62 43.62 0 0 1 3.497 49.19h6.236v-3.132H3.497a43.817 43.817 0 0 1 12.81-29.455 43.832 43.832 0 0 1 29.46-12.808v6.235H48.9V3.793a43.427 43.427 0 0 1 25.171 9.045l1.91-2.483a47.004 47.004 0 0 0-68.56 12.439 46.986 46.986 0 0 0-7.088 24.83 46.828 46.828 0 0 0 3.242 17.198l2.917-1.145ZM81.743 20.4a43.36 43.36 0 0 1 9.428 25.657h-6.238v3.133h6.236a43.818 43.818 0 0 1-12.81 29.454A43.832 43.832 0 0 1 48.9 91.452v-6.235h-3.132v6.235a43.77 43.77 0 0 1-33.99-18.118L9.24 75.17a46.922 46.922 0 0 0 38.093 19.445 47.02 47.02 0 0 0 42.305-26.53 47 47 0 0 0-5.439-49.63L81.743 20.4Z"/><path fill="#7B9E87" d="m64.778 80.963 2.714-1.566 1.549 2.682-2.714 1.566-1.549-2.682ZM79.092 67.766l1.567-2.713 2.704 1.562-1.566 2.712-2.705-1.56ZM79.095 27.484l2.773-1.6 1.567 2.712-2.774 1.601-1.566-2.713ZM64.785 14.27l1.572-2.722 2.713 1.566-1.572 2.722-2.713-1.566ZM25.601 13.122l2.713-1.567 1.569 2.716-2.714 1.566-1.568-2.715ZM11.299 28.634l1.567-2.713 2.68 1.547-1.567 2.713-2.68-1.547ZM25.622 82.088l1.553-2.69 2.714 1.567-1.553 2.69-2.714-1.567Z"/><path fill="#7B9E87" d="M83.367.632v3.133h5.617l-19.78 19.777a16.544 16.544 0 0 0-5.638-.98 17.005 17.005 0 0 0-12.21 5.202l-4.023 4.186-4.023-4.186a17 17 0 0 0-12.354-5.202 16.18 16.18 0 0 0-11.84 5.19 17.844 17.844 0 0 0 .208 24.322l1.246 1.297L.792 73.144l2.216 2.216L22.742 55.63l24.591 25.583 28.01-29.14a17.843 17.843 0 0 0 .207-24.321 16.26 16.26 0 0 0-3.36-2.765L91.2 5.98v5.617h3.133V.632H83.367Zm-61.784 49.27a14.711 14.711 0 0 1-.17-20.02 13.074 13.074 0 0 1 9.688-4.188 13.86 13.86 0 0 1 9.95 4.241l6.282 6.536 6.283-6.536a13.858 13.858 0 0 1 10.067-4.24c1.012.009 2.02.13 3.004.363L44.2 48.543l-9.4-9.399-12.014 12.012-1.203-1.252Zm51.67-20.02a14.712 14.712 0 0 1-.17 20.02l-25.75 26.79-22.375-23.278 9.842-9.84 9.4 9.398 25.697-25.693a13.06 13.06 0 0 1 3.356 2.604Z"/></svg>