<svg xmlns="http://www.w3.org/2000/svg" width="95" height="95" fill="none" viewBox="0 0 95 95"><g fill="#7B9E87" clip-path="url(#a)"><path d="M34.961 11.336a3.026 3.026 0 0 0 3.023-3.023 3.026 3.026 0 0 0-3.023-3.022 3.026 3.026 0 0 0-3.022 3.022 3.026 3.026 0 0 0 3.022 3.023Zm0-3.708a.686.686 0 0 1 0 1.37.686.686 0 0 1 0-1.37ZM14.945 36.857h40.032c.646 0 1.169-.523 1.169-1.168v-9.007c0-.646-.523-1.169-1.169-1.169H14.945c-.646 0-1.169.523-1.169 1.169v9.007c0 .645.523 1.168 1.169 1.168Zm1.168-9.007H53.81v6.67H16.113v-6.67ZM27.413 42.55h27.564v2.337H27.413V42.55ZM14.945 51.334H22.7c.645 0 1.168-.524 1.168-1.169V42.64l1.714-1.715-1.652-1.652-1.97 1.97h-7.015c-.646 0-1.169.523-1.169 1.168v7.755c0 .645.523 1.169 1.169 1.169Zm1.168-7.755h3.51l-2.085 2.084 1.653 1.653 2.34-2.34v4.02h-5.418V43.58ZM14.945 64.49H22.7c.645 0 1.168-.523 1.168-1.169v-7.526l1.714-1.715-1.652-1.652-1.97 1.97h-7.015c-.646 0-1.169.523-1.169 1.168v7.755c0 .646.523 1.169 1.169 1.169Zm1.168-7.755h3.51l-2.085 2.084 1.653 1.653 2.34-2.34v4.02h-5.418v-5.417ZM14.945 77.647H22.7c.645 0 1.168-.523 1.168-1.168v-7.527l1.714-1.714-1.652-1.653-1.97 1.97h-7.015c-.646 0-1.169.523-1.169 1.169v7.755c0 .645.523 1.168 1.169 1.168Zm1.168-7.755h3.51l-2.085 2.085 1.653 1.652 2.34-2.34v4.021h-5.418v-5.418ZM56.123 69.38h2.337v2.862h-2.337V69.38Z"/><path d="M93.185 74.767h-.864c-.035-4.893-1.706-9.95-4.6-13.898-2.832-3.862-6.463-6.167-9.715-6.167-.925 0-1.881.187-2.841.543a4.029 4.029 0 0 0-.975-.131l-.84-.01a1.603 1.603 0 0 1-1.191-.542 1.603 1.603 0 0 1-.402-1.246l.105-1.007a3.924 3.924 0 0 0-1.566-3.58 4.016 4.016 0 0 0-.719-.429V17.798c0-4.51-3.67-8.18-8.18-8.18h-5.81a3.512 3.512 0 0 0-3.434-2.805h-9.641A7.69 7.69 0 0 0 34.96.616a7.69 7.69 0 0 0-7.551 6.197h-9.64a3.512 3.512 0 0 0-3.436 2.804H8.525c-4.51 0-8.18 3.67-8.18 8.18v68.64c0 4.51 3.67 8.18 8.18 8.18h67.148c10.3 0 18.68-8.38 18.68-18.681 0-.646-.523-1.169-1.168-1.169ZM78.006 57.04c5.252 0 11.904 8.328 11.978 17.728H87.38c-.26-4.945-4.365-8.889-9.374-8.889a9.365 9.365 0 0 0-6.972 3.109 15.405 15.405 0 0 0-2.658-3.782c2.423-4.83 6.307-8.166 9.63-8.166Zm7.03 17.728h-12.44a15.241 15.241 0 0 0-.569-3.231 7.05 7.05 0 0 1 5.98-3.32c3.719 0 6.773 2.896 7.03 6.551Zm-22.772-3.19-2.479 1.43 1.016 1.76h-7.02l1.016-1.76-2.48-1.43L51.15 73.6l2.022 1.167h-3.989c.509-4.023 3.95-7.146 8.109-7.146 4.16 0 7.6 3.123 8.108 7.146h-3.988l2.022-1.167-1.17-2.024Zm-4.973-6.293c-5.45 0-9.943 4.168-10.462 9.483H44.33c.527-6.691 6.137-11.976 12.961-11.976 6.824 0 12.434 5.285 12.96 11.976h-2.499c-.518-5.315-5.012-9.483-10.461-9.483ZM68.896 50.6c.469.35.702.885.642 1.466l-.105 1.007a3.964 3.964 0 0 0 .98 3.043c.402.45.9.795 1.448 1.02-1.264.985-2.477 2.242-3.57 3.733-.63.86-1.2 1.776-1.71 2.728a15.354 15.354 0 0 0-3.212-1.885l1.245-5.24-2.274-.54-1.19 5.014a15.279 15.279 0 0 0-3.043-.47L55.985 56.8l-2.024 1.169 1.5 2.598c-4.777.57-8.888 3.34-11.282 7.27-.056-.028-.111-.06-.17-.086l-.924-.413a1.587 1.587 0 0 1-.949-1.288c-.069-.58.157-1.118.62-1.475l.852-.657a3.97 3.97 0 0 0 1.523-2.76 3.97 3.97 0 0 0-.977-2.998l-.433-.49a1.6 1.6 0 0 1-.312-1.624 1.6 1.6 0 0 1 1.277-1.052l.95-.147c2.088-.324 3.157-2.716 2.985-4.842a1.15 1.15 0 0 0-.01-.089c-.002-.01-.154-1.06 1.04-1.75 1.136-.655 1.962-.08 2.036-.026.033.03.035.028.071.053 1.755 1.213 4.362 1.483 5.687-.164l.602-.749a1.6 1.6 0 0 1 1.549-.58 1.6 1.6 0 0 1 1.251 1.082l.207.62a3.971 3.971 0 0 0 2.107 2.346 3.972 3.972 0 0 0 3.152.06l.996-.409c.54-.222 1.12-.149 1.587.201ZM55.658 13.702v-1.747h5.739a5.85 5.85 0 0 1 5.843 5.843V48c-.277.05-.552.127-.82.238l-.996.41c-.42.172-.878.163-1.29-.026a1.605 1.605 0 0 1-.863-.96l-.176-.526V20.728a3.51 3.51 0 0 0-3.506-3.506h-4.728a8.13 8.13 0 0 0 .797-3.52ZM16.601 10.32a1.17 1.17 0 0 1 1.168-1.169h10.672c.623 0 1.136-.488 1.167-1.11a5.353 5.353 0 0 1 5.353-5.087 5.353 5.353 0 0 1 5.352 5.087c.032.622.545 1.11 1.168 1.11h10.672a1.17 1.17 0 0 1 1.168 1.169v3.383a5.85 5.85 0 0 1-5.843 5.843H22.444a5.85 5.85 0 0 1-5.843-5.843V10.32Zm.14 9.24a8.15 8.15 0 0 0 5.703 2.323h25.034a8.15 8.15 0 0 0 5.702-2.323h6.41a1.17 1.17 0 0 1 1.168 1.17V44.61a4.091 4.091 0 0 0-.75-.21 3.907 3.907 0 0 0-3.782 1.415l-.602.749c-.414.513-1.7.27-2.51-.274-.794-.617-2.617-1.31-4.631-.148-.758.438-1.274.983-1.616 1.545H27.413v2.338h18.86c.005.07.012.139.02.203.068.973-.364 2.208-1.016 2.31l-.95.147a3.905 3.905 0 0 0-3.116 2.568c-.054.15-.098.302-.134.454H27.413v2.338h13.832c.168.42.41.818.726 1.175l.433.49c.28.316.421.716.405 1.134H27.413v2.337h13.418a3.918 3.918 0 0 0-1.015 3.146 3.922 3.922 0 0 0 1.353 2.538H27.413v2.337h15.239c-.283.9-.482 1.837-.595 2.8H27.413v2.337h10.356a18.56 18.56 0 0 0 2.994 9.737h-30.43a1.17 1.17 0 0 1-1.169-1.168v-64.18a1.17 1.17 0 0 1 1.169-1.169h6.409ZM8.526 92.28a5.85 5.85 0 0 1-5.843-5.843V17.798a5.85 5.85 0 0 1 5.843-5.843h5.739v1.747c0 1.26.286 2.454.797 3.52h-4.728a3.51 3.51 0 0 0-3.506 3.506v64.18a3.51 3.51 0 0 0 3.506 3.506H42.55a18.8 18.8 0 0 0 4.853 3.865H8.525Zm67.148 0H56.438c-8.618 0-15.7-6.706-16.301-15.174h51.838c-.601 8.468-7.683 15.174-16.302 15.174Z"/></g><defs><clipPath id="a"><path fill="#fff" d="M.667.616h94v94h-94z"/></clipPath></defs></svg>