<svg xmlns="http://www.w3.org/2000/svg" width="94" height="95" fill="none" viewBox="0 0 94 95"><g fill="#7B9E87" clip-path="url(#a)"><path d="M82.153 73.755a32.728 32.728 0 0 0-1.127-38.13A23.075 23.075 0 0 0 78.03 7.112 22.455 22.455 0 0 0 62.071.616 22.44 22.44 0 0 0 46.12 7.12l-3.82 3.888-3.815-3.89A22.436 22.436 0 0 0 22.538.616h-.012a22.403 22.403 0 0 0-15.929 6.5 23.157 23.157 0 0 0 0 32.341l15.354 15.6c0 .133-.02.26-.02.393a32.88 32.88 0 0 0 51.207 27.32l10.448 10.449a4.743 4.743 0 0 0 3.378 1.397h.017a4.7 4.7 0 0 0 3.348-1.399l2.261-2.264a4.766 4.766 0 0 0 0-6.75L82.153 73.755ZM8.83 37.262a20.01 20.01 0 0 1 0-27.946A19.258 19.258 0 0 1 22.527 3.75h.011a19.284 19.284 0 0 1 13.713 5.564l4.934 5.028a1.566 1.566 0 0 0 2.237 0l4.933-5.026A19.282 19.282 0 0 1 62.07 3.75a19.298 19.298 0 0 1 13.724 5.566A19.952 19.952 0 0 1 78.905 33.1a32.82 32.82 0 0 0-56.622 17.825L8.83 37.262ZM25.067 55.45a29.766 29.766 0 1 1 29.766 29.766A29.8 29.8 0 0 1 25.067 55.45Zm65.319 33.28-2.28 2.283a1.586 1.586 0 0 1-1.136.47 1.88 1.88 0 0 1-1.168-.481L75.679 80.88a33.365 33.365 0 0 0 4.584-4.584l10.121 10.122a1.625 1.625 0 0 1 .483 1.169 1.596 1.596 0 0 1-.481 1.143Z"/><path d="M61.492 29.66a1.567 1.567 0 0 0-.784 3.032 23.513 23.513 0 1 1-5.875-.742 1.567 1.567 0 1 0 0-3.134 26.62 26.62 0 1 0 6.659.843Z"/><path d="M54.833 66.416v-9.4a1.567 1.567 0 1 0-3.133 0v9.4h-3.133V60.15a1.567 1.567 0 0 0-3.134 0v6.266H42.3v-23.5a1.567 1.567 0 0 0-3.133 0v25.067a1.567 1.567 0 0 0 1.566 1.567h28.2a1.566 1.566 0 1 0 0-3.134h-1.566V49.832l.459.459a1.566 1.566 0 0 0 2.215-2.216l-3.133-3.133a1.567 1.567 0 0 0-2.216 0l-3.133 3.133a1.566 1.566 0 0 0 2.215 2.216l.46-.46v16.585H61.1V55.45a1.567 1.567 0 0 0-3.133 0v10.966h-3.134ZM11.067 11.51A16.814 16.814 0 0 0 9.23 32.837a1.567 1.567 0 1 0 2.579-1.777 13.682 13.682 0 0 1 1.488-17.352 1.567 1.567 0 1 0-2.231-2.193v-.007Z"/></g><defs><clipPath id="a"><path fill="#fff" d="M0 .616h94v94H0z"/></clipPath></defs></svg>