<svg width="96" height="96" viewBox="0 0 96 96" fill="none" xmlns="http://www.w3.org/2000/svg">
<path d="M92 23.973C92 14.6148 84.4672 7 75.2087 7C65.9502 7 58.4166 14.6139 58.4166 23.973C58.4166 32.7308 65.0139 39.9578 73.4487 40.8508V73.6761C73.4487 80.1639 68.2268 85.4421 61.8081 85.4421C55.3894 85.4421 50.1683 80.163 50.1683 73.6752V54.2419V28.8607C50.1683 20.1838 43.1838 13.1249 34.6002 13.1249C26.0167 13.1249 19.0322 20.1847 19.0322 28.8607V37.9529C10.5974 38.8451 4 46.0729 4 54.8307C4 59.9523 6.266 64.5412 9.82648 67.6561C9.90392 67.7433 9.98928 67.8224 10.0834 67.8927C12.9927 70.3334 16.7248 71.8037 20.7913 71.8037C24.8551 71.8037 28.5846 70.3361 31.4921 67.898C31.5933 67.8233 31.6848 67.7397 31.7658 67.6472C35.321 64.5323 37.5826 59.9479 37.5826 54.8307C37.5826 46.0729 30.9852 38.8459 22.5513 37.9529V28.8607C22.5513 22.146 27.9562 16.6828 34.5994 16.6828C41.2425 16.6828 46.6474 22.146 46.6474 28.8607V54.2419V73.6761C46.6474 82.1252 53.449 89 61.8081 89C70.1672 89 76.9687 82.1252 76.9687 73.6761V40.8499C85.4035 39.9578 92 32.7299 92 23.973ZM13.284 65.8816C14.6788 63.182 17.5538 61.4387 20.7913 61.4387C24.0288 61.4387 26.9029 63.182 28.2986 65.8816C26.1619 67.3697 23.5774 68.2449 20.7913 68.2449C18.0052 68.2449 15.4215 67.3697 13.284 65.8816ZM16.8418 53.8888C16.8418 51.6873 18.6142 49.8968 20.7913 49.8968C22.9684 49.8968 24.7407 51.6882 24.7407 53.8888C24.7407 56.0893 22.9684 57.8808 20.7913 57.8808C18.6142 57.8808 16.8418 56.0902 16.8418 53.8888ZM34.0634 54.8307C34.0634 58.1031 32.8957 61.1016 30.9632 63.432C29.8025 61.5694 28.1349 60.084 26.1663 59.1198C27.4608 57.7625 28.2616 55.9195 28.2616 53.8888C28.2616 49.7251 24.9106 46.3389 20.7922 46.3389C16.6738 46.3389 13.3227 49.726 13.3227 53.8888C13.3227 55.9195 14.1235 57.7616 15.418 59.1198C13.4494 60.084 11.781 61.5703 10.6211 63.4329C8.68776 61.1007 7.52 58.1022 7.52 54.8307C7.52 47.4338 13.4741 41.4165 20.7922 41.4165C28.1102 41.4165 34.0634 47.4338 34.0634 54.8307ZM75.2087 37.3872C67.8906 37.3872 61.9366 31.3699 61.9366 23.973C61.9366 16.5761 67.8906 10.5579 75.2087 10.5579C82.5259 10.5579 88.48 16.5761 88.48 23.973C88.48 31.3699 82.5259 37.3872 75.2087 37.3872Z" fill="#F9A351"/>
<path d="M83.3026 17.5859C82.5312 16.9904 81.4215 17.13 80.8233 17.9031L73.7997 26.9934L69.2802 24.462C68.4293 23.9875 67.3513 24.2888 66.8742 25.1405C66.397 25.9914 66.701 27.0685 67.5528 27.5456L73.4021 30.822C73.4683 30.8591 73.5399 30.8776 73.6088 30.905C73.6592 30.9245 73.706 30.9492 73.7573 30.9642C73.9243 31.0146 74.0939 31.0473 74.2636 31.0473C74.2698 31.0473 74.2751 31.0455 74.2812 31.0455C74.4191 31.0446 74.5569 31.0252 74.6912 30.9916C74.7372 30.9801 74.7787 30.9607 74.8229 30.9457C74.9148 30.9147 75.0058 30.8803 75.0924 30.8343C75.1427 30.8087 75.1869 30.776 75.2337 30.7451C75.308 30.6965 75.3786 30.6435 75.4458 30.5834C75.4917 30.541 75.535 30.4968 75.5757 30.4491C75.604 30.4182 75.6367 30.3943 75.6632 30.3607L83.6207 20.0653C84.2171 19.293 84.0749 18.1823 83.3026 17.5859Z" fill="#F9A351"/>
</svg>
