<svg width="96" height="96" viewBox="0 0 96 96" fill="none" xmlns="http://www.w3.org/2000/svg">
<path d="M52.5001 49.7312H43.4994C42.6714 49.7312 41.9993 49.0606 41.9993 48.2311V39.1989H32.9657C32.1376 39.1989 31.4656 38.5284 31.4656 37.6988V28.6982C31.4656 27.8686 32.1376 27.1981 32.9657 27.1981H41.9993V18.1629C41.9993 17.3334 42.6714 16.6628 43.4994 16.6628H52.5001C53.3281 16.6628 54.0002 17.3334 54.0002 18.1629V27.1966H63.0338C63.8619 27.1966 64.5339 27.8671 64.5339 28.6967V37.6973C64.5339 38.5269 63.8619 39.1974 63.0338 39.1974H54.0002V48.2296C54.0002 49.0606 53.3281 49.7312 52.5001 49.7312ZM44.9995 46.731H51V37.6988C51 36.8693 51.672 36.1987 52.5001 36.1987H61.5337V30.1983H52.5001C51.672 30.1983 51 29.5278 51 28.6982V19.6631H44.9995V28.6967C44.9995 29.5263 44.3275 30.1968 43.4994 30.1968H34.4658V36.1972H43.4994C44.3275 36.1972 44.9995 36.8678 44.9995 37.6973V46.731Z" fill="#EF9F42"/>
<path d="M8.99546 75.6681C8.70444 75.6681 8.40892 75.5826 8.1509 75.4071C7.46685 74.9391 7.29134 74.006 7.75787 73.3205L22.7064 51.4309C23.173 50.7484 24.1105 50.5744 24.7916 51.0379C25.4756 51.5059 25.6511 52.439 25.1846 53.1245L10.236 75.0156C9.94503 75.4401 9.47399 75.6681 8.99546 75.6681Z" fill="#EF9F42"/>
<path d="M87.0041 75.6681C86.5255 75.6681 86.0545 75.4401 85.7635 75.014L70.8149 53.1245C70.3469 52.4389 70.5239 51.5059 71.208 51.0378C71.892 50.5728 72.8281 50.7483 73.2931 51.4308L88.2417 73.3204C88.7097 74.006 88.5327 74.939 87.8486 75.4071C87.5906 75.5841 87.2951 75.6681 87.0041 75.6681Z" fill="#EF9F42"/>
<path d="M27.7828 88.5001C27.4918 88.5001 27.1963 88.4146 26.9383 88.2391C26.2542 87.7711 26.0787 86.838 26.5452 86.1525L46.7607 56.5538C47.2287 55.8713 48.1618 55.6973 48.8458 56.1608C49.5299 56.6289 49.7054 57.5619 49.2388 58.2475L29.0234 87.8476C28.7339 88.2721 28.2628 88.5001 27.7828 88.5001Z" fill="#EF9F42"/>
<path d="M48.0764 58.8985C35.6795 58.897 24.7572 49.7329 22.6691 37.579C21.466 30.5855 23.3216 23.28 27.7559 17.5391C32.1752 11.8192 38.7457 8.1919 45.7842 7.59036C60.6443 6.32427 73.7027 18.5576 73.7027 33.1987C73.7027 46.4326 63.3865 57.6819 50.2155 58.8055C49.5 58.867 48.7859 58.8985 48.0764 58.8985ZM47.9339 10.4976C47.3068 10.4976 46.6753 10.5246 46.0392 10.5786C39.8348 11.1096 34.0369 14.3138 30.1306 19.3722C26.2078 24.4501 24.5667 30.902 25.6258 37.072C27.4694 47.8037 37.1211 55.8968 48.0764 55.8983C48.7019 55.8983 49.329 55.8713 49.9605 55.8173C61.5908 54.8242 70.7025 44.889 70.7025 33.1987C70.7025 20.8933 60.2767 10.4976 47.9339 10.4976Z" fill="#EF9F42"/>
<path d="M68.2168 88.5001C67.7382 88.5001 67.2672 88.272 66.9762 87.846L46.7607 58.2474C46.2927 57.5618 46.4697 56.6288 47.1538 56.1607C47.8378 55.6957 48.7724 55.8712 49.2389 56.5538L69.4543 86.1524C69.9224 86.8379 69.7454 87.771 69.0613 88.239C68.8018 88.4145 68.5078 88.5001 68.2168 88.5001Z" fill="#EF9F42"/>
<path d="M8.9955 75.6681C8.19895 75.6681 7.5359 75.0411 7.4984 74.237C7.46089 73.409 8.09994 72.7069 8.928 72.6694L23.1505 72.0154C23.9771 71.9779 24.6791 72.6154 24.7181 73.445C24.7556 74.273 24.1166 74.9751 23.2885 75.0126L9.06601 75.6666C9.04201 75.6681 9.0195 75.6681 8.9955 75.6681Z" fill="#EF9F42"/>
<path d="M27.7843 88.5002C27.1587 88.5002 26.5752 88.1056 26.3637 87.4801L21.7988 73.9956C21.5333 73.2126 21.9549 72.359 22.7379 72.0935C23.5255 71.828 24.3745 72.2495 24.64 73.0341L29.2049 86.5185C29.4704 87.3016 29.0489 88.1552 28.2658 88.4207C28.1068 88.4747 27.9448 88.5002 27.7843 88.5002Z" fill="#EF9F42"/>
<path d="M68.2153 88.5002C68.0563 88.5002 67.8943 88.4747 67.7338 88.4207C66.9492 88.1552 66.5277 87.3031 66.7947 86.5185L71.3595 73.0341C71.625 72.2495 72.4801 71.828 73.2617 72.0935C74.0462 72.359 74.4677 73.2111 74.2007 73.9956L69.6359 87.4801C69.4244 88.1056 68.8408 88.5002 68.2153 88.5002Z" fill="#EF9F42"/>
<path d="M87.0041 75.6682C86.9801 75.6682 86.9576 75.6682 86.9336 75.6667L72.7111 75.0127C71.883 74.9752 71.2425 74.2731 71.2815 73.4451C71.3205 72.617 72.027 71.945 72.8491 72.0155L87.0716 72.6695C87.8997 72.707 88.5402 73.4091 88.5012 74.2371C88.4637 75.0412 87.8007 75.6682 87.0041 75.6682Z" fill="#EF9F42"/>
<path d="M72.781 75.0149C72.3025 75.0149 71.8315 74.7869 71.5405 74.3594L65.5765 65.6264C65.1085 64.9424 65.2855 64.0094 65.9695 63.5414C66.655 63.0764 67.588 63.2519 68.0545 63.9359L74.0185 72.6689C74.4865 73.3529 74.3095 74.2859 73.6255 74.7539C73.3675 74.9294 73.072 75.0149 72.781 75.0149Z" fill="#EF9F42"/>
<path d="M23.2179 75.015C22.9269 75.015 22.6314 74.9295 22.3734 74.754C21.6894 74.286 21.5139 73.353 21.9804 72.669L27.9444 63.936C28.4109 63.252 29.3469 63.078 30.0294 63.5415C30.7134 64.0095 30.8889 64.9425 30.4224 65.6265L24.4584 74.3595C24.1674 74.7855 23.6964 75.015 23.2179 75.015Z" fill="#EF9F42"/>
</svg>
