<svg width="96" height="96" viewBox="0 0 96 96" fill="none" xmlns="http://www.w3.org/2000/svg">
<path d="M87.4738 79.5452C87.2766 79.5452 85.3944 79.368 80.2951 73.2497C84.8334 67.421 87.7115 60.4739 88.625 53.1435C89.5386 45.8131 88.4534 38.372 85.4844 31.6078C82.5155 24.8436 77.7731 19.0078 71.7592 14.718C65.7453 10.4281 58.6836 7.84379 51.3213 7.23848C26.6397 4.85989 4.78268 26.6689 7.11001 51.3536C9.41831 83.1052 46.9252 100.169 72.3376 80.9982C77.1889 83.2105 82.6463 83.7154 87.8211 82.4306C88.1689 82.3458 88.4734 82.1364 88.6773 81.8422C88.8811 81.548 88.97 81.1892 88.9273 80.8339C88.8845 80.4785 88.713 80.1511 88.4452 79.9137C88.1773 79.6762 87.8318 79.5451 87.4738 79.5452ZM72.9805 78.0545C72.7246 77.888 72.4231 77.8055 72.118 77.8183C71.813 77.8311 71.5195 77.9387 71.2784 78.126C64.0027 83.7783 54.924 86.6001 45.7261 86.0679C13.1585 84.274 -2.06353 44.0392 21.0847 21.1505C43.7661 -1.7135 83.4631 13.0482 85.8959 45.0998C86.6353 54.5626 83.8142 63.9605 77.9855 71.4518C77.5691 71.9743 77.3458 72.6246 77.3533 73.2928C77.3609 73.9609 77.5988 74.606 78.027 75.119C79.4945 76.9299 81.1082 78.6172 82.8518 80.164C79.4357 80.3103 76.0385 79.5843 72.9805 78.0545Z" fill="#F9A351"/>
<path d="M74.7685 38.1013C75.4614 35.9979 73.2289 33.6197 72.2245 31.5715C71.7428 30.7404 70.9512 30.1341 70.0232 29.8855C69.0953 29.6369 68.1066 29.7662 67.2739 30.2452L64.4055 31.9009C61.484 28.9275 57.8114 26.801 53.7781 25.7476V22.4362C53.777 21.4753 53.3948 20.554 52.7154 19.8744C52.0359 19.1948 51.1147 18.8125 50.1537 18.8112H45.799C44.8378 18.8122 43.9163 19.1944 43.2365 19.874C42.5568 20.5536 42.1744 21.4751 42.1732 22.4362V25.7369C38.1417 26.7891 34.4681 28.908 31.5387 31.8709L28.6632 30.2174C27.8308 29.7413 26.8439 29.6138 25.9178 29.8625C24.9917 30.1112 24.2016 30.716 23.7197 31.5451L21.5359 35.3181C21.0563 36.1507 20.9263 37.1395 21.1743 38.0679C21.4224 38.9962 22.0283 39.7884 22.8593 40.2709L25.7191 41.9237C24.6079 45.941 24.6049 50.1843 25.7105 54.2032C24.3087 55.1145 21.4472 56.1421 21.1514 58.0591C20.4588 60.1626 22.6886 62.5372 23.6954 64.5904C24.1777 65.421 24.9692 66.0268 25.897 66.2753C26.8247 66.5239 27.8131 66.3949 28.6461 65.9167L31.5159 64.2603C34.4372 67.2334 38.1091 69.3599 42.1417 70.4142V73.7256C42.143 74.6865 42.5253 75.6076 43.2047 76.287C43.8841 76.9665 44.8053 77.3487 45.7661 77.35H50.1209C51.0819 77.349 52.0034 76.9669 52.6831 76.2874C53.3629 75.608 53.7453 74.6867 53.7467 73.7256V70.4242C57.7781 69.3709 61.4515 67.2516 64.3812 64.2888L67.2553 65.9437C68.0876 66.4212 69.0751 66.5495 70.0018 66.3007C70.9286 66.0519 71.719 65.4462 72.2002 64.616L74.384 60.843C74.8637 60.0105 74.9937 59.0218 74.7456 58.0935C74.4976 57.1653 73.8916 56.3732 73.0606 55.891L70.2008 54.2374C71.312 50.2203 71.315 45.9773 70.2094 41.9587C71.6116 41.046 74.4728 40.0202 74.7685 38.1013ZM71.6157 37.7677L67.7397 40.0043C67.4478 40.1729 67.223 40.4372 67.1035 40.7524C66.9839 41.0677 66.977 41.4145 67.0837 41.7343C68.4537 45.8638 68.4502 50.3259 67.0737 54.4532C66.9655 54.7731 66.9714 55.1207 67.0904 55.4367C67.2095 55.7528 67.4344 56.0178 67.7268 56.1868L71.5941 58.4249C71.7541 58.5174 71.8708 58.6695 71.9188 58.8479C71.9667 59.0263 71.942 59.2165 71.85 59.3767L69.6663 63.1511C69.5737 63.3106 69.4217 63.4268 69.2436 63.4745C69.0655 63.5222 68.8758 63.4974 68.7159 63.4055L64.8357 61.1732C64.5438 61.0046 64.2025 60.9423 63.8698 60.9967C63.5372 61.0512 63.2336 61.219 63.0106 61.4719C60.1167 64.7213 56.2519 66.9506 51.9902 67.8288C51.6598 67.8963 51.3628 68.0758 51.1495 68.337C50.9362 68.5982 50.8197 68.9251 50.8197 69.2623V73.7256C50.8194 73.9107 50.7456 74.0881 50.6146 74.2189C50.4835 74.3496 50.306 74.4231 50.1209 74.423H45.7661C45.5812 74.4228 45.404 74.3492 45.2733 74.2185C45.1425 74.0877 45.069 73.9105 45.0687 73.7256V69.2508C45.0687 68.9134 44.952 68.5863 44.7384 68.3251C44.5248 68.0639 44.2275 67.8845 43.8968 67.8174C39.6348 66.94 35.7727 64.7033 32.8907 61.4433C32.7535 61.2874 32.5846 61.1626 32.3953 61.077C32.2061 60.9915 32.0007 60.9473 31.793 60.9474C31.2225 60.8232 27.7586 63.1373 27.1825 63.3813C27.0223 63.4731 26.8322 63.4978 26.6538 63.4498C26.4755 63.4019 26.3233 63.2853 26.2307 63.1255L24.0484 59.3453C24.0026 59.2661 23.9728 59.1785 23.9609 59.0878C23.9489 58.997 23.955 58.9048 23.9788 58.8163C24.0026 58.7279 24.0435 58.6451 24.0994 58.5725C24.1552 58.5 24.2248 58.4391 24.3042 58.3935L28.1802 56.1569C28.4722 55.9882 28.697 55.7238 28.8166 55.4084C28.9361 55.093 28.943 54.746 28.8362 54.4261C27.4662 50.2966 27.4697 45.8345 28.8462 41.7072C28.9541 41.3872 28.948 41.0396 28.829 40.7236C28.71 40.4075 28.4853 40.1423 28.1931 39.9729L24.3258 37.7369C24.1657 37.644 24.049 37.4915 24.0011 37.3127C23.9532 37.134 23.9779 36.9435 24.0699 36.783L26.2537 33.01C26.346 32.8502 26.4979 32.7336 26.6761 32.6858C26.8543 32.638 27.0442 32.6628 27.2041 32.7549L31.0843 34.9865C31.3763 35.1541 31.7172 35.2161 32.0496 35.162C32.382 35.1078 32.6856 34.9409 32.9094 34.6892C35.8021 31.4394 39.6667 29.2103 43.9283 28.3337C44.2591 28.2665 44.5564 28.087 44.77 27.8256C44.9836 27.5642 45.1002 27.2371 45.1003 26.8995V22.4363C45.1004 22.251 45.1741 22.0735 45.3052 21.9425C45.4362 21.8116 45.6139 21.7381 45.7991 21.7381H50.1538C50.3388 21.7384 50.5162 21.8121 50.6469 21.9429C50.7777 22.0738 50.8512 22.2513 50.8513 22.4363V26.9103C50.8513 27.2478 50.9679 27.5749 51.1815 27.8363C51.3951 28.0977 51.6924 28.2772 52.0232 28.3444C56.2849 29.221 60.1467 31.4576 63.0278 34.7178C63.2513 34.9717 63.5557 35.1403 63.8895 35.1952C64.2232 35.25 64.5656 35.1876 64.8586 35.0187L68.7373 32.7806C68.8975 32.6885 69.0876 32.6636 69.266 32.7114C69.4444 32.7593 69.5966 32.8759 69.6891 33.0357L71.8716 36.8144C71.9216 36.8927 71.9548 36.9805 71.969 37.0723C71.9832 37.1641 71.9781 37.2578 71.954 37.3475C71.9299 37.4372 71.8874 37.5209 71.8292 37.5932C71.7709 37.6656 71.6982 37.725 71.6157 37.7677Z" fill="#F9A351"/>
<path d="M47.9599 36.0049C45.5716 36.0048 43.2369 36.713 41.251 38.0398C39.2652 39.3666 37.7174 41.2524 36.8034 43.4589C35.8893 45.6654 35.6501 48.0933 36.116 50.4357C36.5819 52.7782 37.7319 54.9298 39.4206 56.6187C41.1094 58.3075 43.261 59.4576 45.6034 59.9236C47.9458 60.3896 50.3738 60.1505 52.5803 59.2367C54.7868 58.3228 56.6728 56.7751 57.9997 54.7893C59.3267 52.8036 60.035 50.4689 60.035 48.0806C60.0315 44.8791 58.7582 41.8098 56.4945 39.5459C54.2307 37.282 51.1614 36.0086 47.9599 36.0049ZM47.9599 57.2288C46.1504 57.2288 44.3816 56.6923 42.8771 55.6871C41.3726 54.6819 40.1999 53.2531 39.5074 51.5814C38.815 49.9097 38.6338 48.0703 38.9867 46.2956C39.3397 44.5209 40.2111 42.8908 41.4905 41.6113C42.77 40.3319 44.4001 39.4606 46.1748 39.1076C47.9495 38.7546 49.789 38.9358 51.4607 39.6283C53.1324 40.3207 54.5612 41.4934 55.5664 42.9979C56.5716 44.5024 57.1081 46.2712 57.1081 48.0806C57.1055 50.5061 56.1409 52.8315 54.4258 54.5466C52.7108 56.2616 50.3854 57.2262 47.9599 57.2288Z" fill="#F9A351"/>
</svg>
