<svg xmlns="http://www.w3.org/2000/svg" width="94" height="94" fill="none" viewBox="0 0 94 94"><g clip-path="url(#a)"><mask id="b" width="85" height="86" x="5" y="4" maskUnits="userSpaceOnUse" style="mask-type:luminance"><path fill="#fff" d="M5 4h85v86H5V4Z"/></mask><g stroke="#F9A351" stroke-linecap="round" stroke-linejoin="round" stroke-miterlimit="22.926" stroke-width="3" mask="url(#b)"><path d="M8.32 83.185h13.422l2.836 4.55c.487.78 1.86.78 2.348 0l2.836-4.55H80.04c.913 0 1.66-.756 1.66-1.68V66.388c0-.924-.751-1.68-1.66-1.68H8.32c-.908 0-1.66.76-1.66 1.68v15.117c0 .92.747 1.68 1.66 1.68ZM86.68 53.67H73.258l-2.836 4.55c-.487.781-1.86.782-2.348 0l-2.836-4.55H14.961c-.913 0-1.66-.755-1.66-1.679V36.873c0-.923.751-1.68 1.66-1.68H86.68c.909 0 1.66.761 1.66 1.68v15.118c0 .92-.747 1.68-1.66 1.68ZM8.32 24.157h13.422l2.836 4.549c.487.78 1.86.781 2.348 0l2.836-4.55H80.04c.913 0 1.66-.755 1.66-1.68V7.36c0-.924-.751-1.68-1.66-1.68H8.32c-.908 0-1.66.76-1.66 1.68v15.118c0 .92.747 1.68 1.66 1.68ZM29.238 14.918h29.883M42.519 44.432h0M50.82 44.432h0M59.12 44.432h.002M29.238 73.947h29.883"/></g></g><defs><clipPath id="a"><path fill="#fff" d="M5 4h85v86H5z"/></clipPath></defs></svg>