<svg xmlns="http://www.w3.org/2000/svg" width="94" height="94" fill="none" viewBox="0 0 94 94"><path fill="#F9A351" d="M81.297 8.246H14.352a4.463 4.463 0 0 0-4.457 4.457v66.945a4.463 4.463 0 0 0 4.457 4.457h66.945a4.462 4.462 0 0 0 4.457-4.458V12.703a4.463 4.463 0 0 0-4.457-4.457Zm-66.945 2.226h66.945a2.233 2.233 0 0 1 2.23 2.231V22H12.121v-9.296a2.233 2.233 0 0 1 2.231-2.23Zm66.945 71.406H14.352a2.233 2.233 0 0 1-2.23-2.23V24.225h71.405v55.421a2.234 2.234 0 0 1-2.23 2.231ZM49.502 58.803h-8.394a1.113 1.113 0 0 0-1.113 1.113v15.306a1.113 1.113 0 0 0 1.114 1.113h8.393a1.113 1.113 0 0 0 1.113-1.113V59.916a1.113 1.113 0 0 0-1.113-1.113Zm-1.114 15.305h-6.166V61.03h6.166v13.078Zm14.156-25.344h-8.393a1.113 1.113 0 0 0-1.114 1.113v25.345a1.113 1.113 0 0 0 1.114 1.113h8.393a1.113 1.113 0 0 0 1.113-1.113V49.877a1.113 1.113 0 0 0-1.113-1.113Zm-1.113 25.344h-6.167V50.991h6.166v23.117Zm14.156-34.89h-8.394a1.113 1.113 0 0 0-1.113 1.114v34.89a1.113 1.113 0 0 0 1.113 1.113h8.394a1.113 1.113 0 0 0 1.113-1.113v-34.89a1.113 1.113 0 0 0-1.113-1.113Zm-1.114 34.89h-6.166V41.445h6.166v32.663Zm-57.1-11.58h12.633v2.226H17.373v-2.227Zm0 5.79h12.633v2.227H17.373v-2.227Zm0 5.79h12.633v2.227H17.373v-2.227Zm10.876-45.422a11.518 11.518 0 1 0 11.517 11.517A11.53 11.53 0 0 0 28.25 28.686ZM37.47 39.09h-8.108v-8.108a9.305 9.305 0 0 1 8.108 8.108Zm-10.334-8.108v8.746l-6.315 6.048a9.283 9.283 0 0 1 6.315-14.794Zm1.113 18.512a9.247 9.247 0 0 1-5.888-2.11l6.335-6.067h8.774a9.302 9.302 0 0 1-9.221 8.177Zm15.786-33.5a1.113 1.113 0 0 1 1.114-1.112h25.79a1.113 1.113 0 1 1 0 2.226h-25.79a1.113 1.113 0 0 1-1.114-1.113Z"/></svg>