<svg xmlns="http://www.w3.org/2000/svg" width="94" height="94" fill="none" viewBox="0 0 94 94"><mask id="a" width="94" height="94" x="0" y="0" maskUnits="userSpaceOnUse" style="mask-type:luminance"><path fill="#fff" d="M0 0h94v94H0V0Z"/></mask><g stroke="#F9A351" stroke-linecap="round" stroke-linejoin="round" stroke-miterlimit="10" stroke-width="3" mask="url(#a)"><path d="M47.496 33.65H21.724v45.782c0 7.032 5.77 12.732 12.886 12.732 7.117 0 12.886-5.7 12.886-12.732V58.91M21.724 33.65h25.772v-7.87H21.724v7.87ZM47.496 11.657H21.724v14.122h25.772V11.657ZM52.037 11.657H17.184V1.836h34.853v9.82Z"/><path d="M76.816 45.917c0 9.505-7.705 17.21-17.21 17.21-9.504 0-17.209-7.705-17.209-17.21 0-9.504 7.705-17.209 17.21-17.209 9.504 0 17.209 7.705 17.209 17.21Z"/><path d="M66.732 48.141c0-5.438-7.096-12.17-7.096-12.17s-7.096 6.715-7.096 12.17a7.096 7.096 0 1 0 14.192 0ZM33.537 67.252v4.758H21.724V42.77h11.813v7.883"/></g></svg>