<svg xmlns="http://www.w3.org/2000/svg" width="94" height="94" fill="none" viewBox="0 0 94 94"><mask id="a" width="81" height="88" x="7" y="3" fill="#000" maskUnits="userSpaceOnUse"><path fill="#fff" d="M7 3h81v88H7z"/><path d="M47.502 87.156a.81.81 0 0 1-.809-.812v-15.48a.81.81 0 0 1 .809-.812.81.81 0 0 1 .808.812v15.48a.81.81 0 0 1-.808.813ZM47.502 23.96a.81.81 0 0 1-.809-.812V7.208a.81.81 0 0 1 .809-.812.81.81 0 0 1 .808.812v15.94a.81.81 0 0 1-.808.812ZM23.76 47.82h-8.39a.81.81 0 0 1-.808-.813.81.81 0 0 1 .808-.813h8.39a.81.81 0 0 1 .808.813.81.81 0 0 1-.808.812Z"/><path d="M16.22 65.2a.763.763 0 0 1-.134-.011c-4.56-.762-8.035-4.84-8.085-9.486-.047-4.36 2.963-8.347 7.159-9.481.428-.12.875.14.991.574a.813.813 0 0 1-.57.996c-3.495.944-6 4.265-5.964 7.893.04 3.869 2.937 7.266 6.735 7.9.44.073.738.492.664.934a.809.809 0 0 1-.795.681Z"/><path d="M15.37 47.82a.804.804 0 0 1-.333-.072c-4.708-2.137-7.324-7.369-6.22-12.44 1.014-4.665 5.032-8.218 9.77-8.642.465-.043.838.29.875.737a.811.811 0 0 1-.734.88c-4.04.363-7.468 3.393-8.333 7.373-.943 4.327 1.289 8.788 5.305 10.611a.812.812 0 0 1-.33 1.552ZM78.783 65.2a.812.812 0 0 1-.131-1.613c3.568-.597 6.388-3.653 6.703-7.27.337-3.857-2.213-7.521-5.932-8.525a.812.812 0 0 1-.57-.996.804.804 0 0 1 .989-.574c4.466 1.206 7.526 5.607 7.122 10.236-.378 4.344-3.764 8.016-8.05 8.73a.715.715 0 0 1-.131.012Z"/><path d="M79.633 47.82a.81.81 0 0 1-.737-.478.815.815 0 0 1 .404-1.075c3.698-1.678 5.942-5.673 5.457-9.716-.527-4.398-4.095-7.874-8.483-8.266a.81.81 0 0 1-.734-.88c.04-.449.462-.785.876-.738 5.146.46 9.33 4.537 9.945 9.69.57 4.74-2.06 9.425-6.395 11.392a.834.834 0 0 1-.333.07Z"/><path d="M79.633 47.82h-8.39a.81.81 0 0 1-.808-.813.81.81 0 0 1 .809-.813h8.39a.81.81 0 0 1 .808.813.81.81 0 0 1-.809.812ZM47.502 56.787a.81.81 0 0 1-.809-.813V38.04a.81.81 0 0 1 .809-.812.81.81 0 0 1 .808.812v17.934c0 .45-.362.814-.808.814ZM53.925 36.275a5.52 5.52 0 0 1-2.22-.468.814.814 0 0 1-.417-1.07.807.807 0 0 1 1.064-.419c1.143.503 2.447.43 3.57-.201 1.124-.629 1.871-1.703 2.05-2.946.207-1.446-.383-2.858-1.58-3.774-1.194-.912-2.706-1.113-4.04-.525a.806.806 0 0 1-1.064-.42.816.816 0 0 1 .418-1.07c1.882-.824 3.998-.556 5.665.723 1.67 1.279 2.493 3.26 2.202 5.299-.25 1.75-1.295 3.256-2.863 4.133a5.714 5.714 0 0 1-2.785.738Z"/><path d="M47.502 38.852a.81.81 0 0 1-.809-.813c0-1.356.69-2.619 1.842-3.378a4.01 4.01 0 0 1 3.817-.346c.41.18.595.658.418 1.071a.806.806 0 0 1-1.064.42 2.389 2.389 0 0 0-2.285.214 2.425 2.425 0 0 0-1.11 2.02.809.809 0 0 1-.81.812ZM50.77 27.205a4.061 4.061 0 0 1-2.23-.674 4.047 4.047 0 0 1-1.847-3.383.81.81 0 1 1 1.617 0c0 .807.416 1.564 1.113 2.023.695.455 1.547.536 2.281.213a.808.808 0 0 1 1.064.417.815.815 0 0 1-.416 1.07 3.895 3.895 0 0 1-1.583.334ZM41.073 69.103c-1.21 0-2.41-.405-3.44-1.193-1.672-1.278-2.494-3.26-2.203-5.298.253-1.75 1.297-3.258 2.865-4.135 1.569-.88 3.39-.977 5.001-.268a.812.812 0 0 1-.646 1.488c-1.142-.5-2.443-.43-3.569.2-1.125.629-1.872 1.703-2.052 2.947-.207 1.448.384 2.858 1.582 3.775 1.195.914 2.703 1.111 4.039.524a.8.8 0 0 1 1.064.42.813.813 0 0 1-.418 1.069 5.512 5.512 0 0 1-2.223.471Z"/><path d="M44.234 60.028a3.918 3.918 0 0 1-1.581-.331.814.814 0 0 1-.419-1.07.804.804 0 0 1 1.064-.42c.739.325 1.593.242 2.286-.216a2.416 2.416 0 0 0 1.11-2.017c0-.448.361-.814.808-.814a.81.81 0 0 1 .808.813 4.041 4.041 0 0 1-1.84 3.376 4.06 4.06 0 0 1-2.236.68ZM47.502 71.678a.812.812 0 0 1-.809-.814c0-.807-.415-1.561-1.114-2.02-.693-.454-1.545-.536-2.28-.212a.806.806 0 0 1-1.065-.418.814.814 0 0 1 .416-1.07c1.236-.545 2.66-.415 3.814.34a4.041 4.041 0 0 1 1.846 3.38.812.812 0 0 1-.808.814ZM56.425 47.82H38.58a.81.81 0 0 1-.808-.813.81.81 0 0 1 .808-.813h17.844a.81.81 0 0 1 .808.813.81.81 0 0 1-.807.812ZM26.725 43.27a.807.807 0 0 1-.74-.488c-.822-1.89-.553-4.018.718-5.693 1.272-1.679 3.248-2.506 5.272-2.212 1.742.252 3.24 1.302 4.113 2.878.873 1.576.97 3.409.267 5.027a.805.805 0 0 1-1.064.42.813.813 0 0 1-.417-1.07c.5-1.15.427-2.456-.199-3.587-.627-1.13-1.694-1.882-2.931-2.06-1.442-.207-2.844.385-3.756 1.587-.91 1.2-1.106 2.717-.522 4.059a.816.816 0 0 1-.74 1.139Z"/><path d="M38.58 47.82c-1.35 0-2.606-.693-3.363-1.851a4.056 4.056 0 0 1-.344-3.835.805.805 0 0 1 1.064-.42.815.815 0 0 1 .418 1.068c-.322.74-.24 1.598.215 2.298a2.402 2.402 0 0 0 2.01 1.114.812.812 0 0 1 0 1.625ZM23.76 47.82a.81.81 0 0 1-.809-.813.81.81 0 0 1 .809-.813c.803 0 1.555-.417 2.011-1.12a2.418 2.418 0 0 0 .212-2.29.814.814 0 0 1 .416-1.07.807.807 0 0 1 1.067.417 4.052 4.052 0 0 1-.341 3.833c-.755 1.162-2.013 1.855-3.365 1.855ZM63.837 59.195c-.267 0-.537-.02-.807-.059-1.74-.252-3.24-1.301-4.113-2.877-.875-1.576-.972-3.41-.269-5.028a.807.807 0 0 1 1.064-.419c.41.179.595.658.417 1.07-.5 1.15-.426 2.456.2 3.587.627 1.13 1.695 1.881 2.93 2.06 1.44.215 2.845-.383 3.755-1.587.91-1.2 1.107-2.717.524-4.059a.808.808 0 1 1 1.481-.652c.821 1.892.553 4.02-.718 5.695-1.103 1.455-2.73 2.269-4.464 2.269Z"/><path d="M59.389 52.369a.815.815 0 0 1-.74-1.137c.32-.74.239-1.598-.216-2.298a2.401 2.401 0 0 0-2.008-1.115.812.812 0 0 1-.808-.814.81.81 0 0 1 .808-.812c1.35 0 2.605.692 3.36 1.85a4.053 4.053 0 0 1 .344 3.838.806.806 0 0 1-.74.488ZM68.28 52.369a.812.812 0 0 1-.742-.486c-.542-1.241-.412-2.675.34-3.833.758-1.162 2.014-1.856 3.366-1.856a.81.81 0 0 1 .808.813.81.81 0 0 1-.808.812c-.804 0-1.556.418-2.012 1.12a2.427 2.427 0 0 0-.212 2.29.816.816 0 0 1-.74 1.14ZM62.904 13.444a.808.808 0 0 1-.797-.687c-.477-3.082-2.565-5.557-5.583-6.621-3.014-1.063-6.185-.437-8.476 1.673a.807.807 0 0 1-1.143-.05.815.815 0 0 1 .05-1.149c2.738-2.522 6.516-3.27 10.104-2.008 3.591 1.264 6.075 4.22 6.645 7.905a.815.815 0 0 1-.8.937Z"/><path d="M76.345 28.287a.815.815 0 0 1-.708-1.204c1.985-3.638 1.41-8.04-1.462-11.213-2.273-2.512-6.346-4.486-10.948-2.494a.809.809 0 0 1-1.062-.424.815.815 0 0 1 .422-1.068c4.438-1.922 9.455-.784 12.784 2.893 3.344 3.694 4.005 8.832 1.684 13.088a.81.81 0 0 1-.71.422ZM67.944 82.846c-1.016 0-2.043-.124-3.061-.379a.812.812 0 0 1-.59-.984.803.803 0 0 1 .978-.594c4.259 1.065 8.642-.484 11.455-4.034 2.804-3.539 3.318-8.176 1.336-12.1a.815.815 0 0 1 .356-1.092.806.806 0 0 1 1.088.358c2.268 4.499 1.69 9.804-1.515 13.846-2.54 3.206-6.212 4.979-10.047 4.979Z"/><path d="M54.713 89.998a11.284 11.284 0 0 1-7.763-3.06.816.816 0 0 1-.038-1.15.807.807 0 0 1 1.143-.039c2.469 2.317 5.947 3.169 9.3 2.275 3.35-.89 5.948-3.353 6.95-6.588a.815.815 0 0 1 1.013-.535.813.813 0 0 1 .532 1.017c-1.17 3.773-4.191 6.642-8.081 7.677a11.847 11.847 0 0 1-3.056.403ZM32.098 13.444a.813.813 0 0 1-.8-.938c.572-3.684 3.054-6.638 6.642-7.9 3.596-1.267 7.37-.516 10.107 2.004.33.304.35.817.05 1.149a.809.809 0 0 1-1.143.05c-2.288-2.11-5.459-2.733-8.48-1.67-3.016 1.063-5.102 3.537-5.58 6.62a.807.807 0 0 1-.796.685Z"/><path d="M18.66 28.287a.808.808 0 0 1-.71-.422c-2.321-4.257-1.67-9.384 1.661-13.062 3.345-3.694 8.374-4.838 12.807-2.919a.812.812 0 0 1-.64 1.492c-3.793-1.643-8.099-.653-10.972 2.52-2.275 2.512-3.847 6.77-1.439 11.187a.815.815 0 0 1-.707 1.204ZM27.055 82.847c-3.832 0-7.496-1.766-10.03-4.962-3.21-4.054-3.796-9.365-1.525-13.865a.802.802 0 0 1 1.086-.357.815.815 0 0 1 .356 1.092c-1.98 3.925-1.463 8.568 1.35 12.118 2.805 3.539 7.188 5.08 11.44 4.018a.813.813 0 0 1 .39 1.578 12.75 12.75 0 0 1-3.067.379Z"/><path d="M40.294 90c-1.009 0-2.03-.132-3.045-.4-3.896-1.035-6.921-3.904-8.094-7.679a.813.813 0 0 1 .532-1.017.807.807 0 0 1 1.012.535c1.006 3.236 3.608 5.701 6.964 6.592 3.352.887 6.823.037 9.289-2.278a.807.807 0 0 1 1.143.039.816.816 0 0 1-.039 1.148A11.302 11.302 0 0 1 40.294 90Z"/></mask><path fill="#F9A351" d="M47.502 87.156a.81.81 0 0 1-.809-.812v-15.48a.81.81 0 0 1 .809-.812.81.81 0 0 1 .808.812v15.48a.81.81 0 0 1-.808.813ZM47.502 23.96a.81.81 0 0 1-.809-.812V7.208a.81.81 0 0 1 .809-.812.81.81 0 0 1 .808.812v15.94a.81.81 0 0 1-.808.812ZM23.76 47.82h-8.39a.81.81 0 0 1-.808-.813.81.81 0 0 1 .808-.813h8.39a.81.81 0 0 1 .808.813.81.81 0 0 1-.808.812Z"/><path fill="#F9A351" d="M16.22 65.2a.763.763 0 0 1-.134-.011c-4.56-.762-8.035-4.84-8.085-9.486-.047-4.36 2.963-8.347 7.159-9.481.428-.12.875.14.991.574a.813.813 0 0 1-.57.996c-3.495.944-6 4.265-5.964 7.893.04 3.869 2.937 7.266 6.735 7.9.44.073.738.492.664.934a.809.809 0 0 1-.795.681Z"/><path fill="#F9A351" d="M15.37 47.82a.804.804 0 0 1-.333-.072c-4.708-2.137-7.324-7.369-6.22-12.44 1.014-4.665 5.032-8.218 9.77-8.642.465-.043.838.29.875.737a.811.811 0 0 1-.734.88c-4.04.363-7.468 3.393-8.333 7.373-.943 4.327 1.289 8.788 5.305 10.611a.812.812 0 0 1-.33 1.552ZM78.783 65.2a.812.812 0 0 1-.131-1.613c3.568-.597 6.388-3.653 6.703-7.27.337-3.857-2.213-7.521-5.932-8.525a.812.812 0 0 1-.57-.996.804.804 0 0 1 .989-.574c4.466 1.206 7.526 5.607 7.122 10.236-.378 4.344-3.764 8.016-8.05 8.73a.715.715 0 0 1-.131.012Z"/><path fill="#F9A351" d="M79.633 47.82a.81.81 0 0 1-.737-.478.815.815 0 0 1 .404-1.075c3.698-1.678 5.942-5.673 5.457-9.716-.527-4.398-4.095-7.874-8.483-8.266a.81.81 0 0 1-.734-.88c.04-.449.462-.785.876-.738 5.146.46 9.33 4.537 9.945 9.69.57 4.74-2.06 9.425-6.395 11.392a.834.834 0 0 1-.333.07Z"/><path fill="#F9A351" d="M79.633 47.82h-8.39a.81.81 0 0 1-.808-.813.81.81 0 0 1 .809-.813h8.39a.81.81 0 0 1 .808.813.81.81 0 0 1-.809.812ZM47.502 56.787a.81.81 0 0 1-.809-.813V38.04a.81.81 0 0 1 .809-.812.81.81 0 0 1 .808.812v17.934c0 .45-.362.814-.808.814ZM53.925 36.275a5.52 5.52 0 0 1-2.22-.468.814.814 0 0 1-.417-1.07.807.807 0 0 1 1.064-.419c1.143.503 2.447.43 3.57-.201 1.124-.629 1.871-1.703 2.05-2.946.207-1.446-.383-2.858-1.58-3.774-1.194-.912-2.706-1.113-4.04-.525a.806.806 0 0 1-1.064-.42.816.816 0 0 1 .418-1.07c1.882-.824 3.998-.556 5.665.723 1.67 1.279 2.493 3.26 2.202 5.299-.25 1.75-1.295 3.256-2.863 4.133a5.714 5.714 0 0 1-2.785.738Z"/><path fill="#F9A351" d="M47.502 38.852a.81.81 0 0 1-.809-.813c0-1.356.69-2.619 1.842-3.378a4.01 4.01 0 0 1 3.817-.346c.41.18.595.658.418 1.071a.806.806 0 0 1-1.064.42 2.389 2.389 0 0 0-2.285.214 2.425 2.425 0 0 0-1.11 2.02.809.809 0 0 1-.81.812ZM50.77 27.205a4.061 4.061 0 0 1-2.23-.674 4.047 4.047 0 0 1-1.847-3.383.81.81 0 1 1 1.617 0c0 .807.416 1.564 1.113 2.023.695.455 1.547.536 2.281.213a.808.808 0 0 1 1.064.417.815.815 0 0 1-.416 1.07 3.895 3.895 0 0 1-1.583.334ZM41.073 69.103c-1.21 0-2.41-.405-3.44-1.193-1.672-1.278-2.494-3.26-2.203-5.298.253-1.75 1.297-3.258 2.865-4.135 1.569-.88 3.39-.977 5.001-.268a.812.812 0 0 1-.646 1.488c-1.142-.5-2.443-.43-3.569.2-1.125.629-1.872 1.703-2.052 2.947-.207 1.448.384 2.858 1.582 3.775 1.195.914 2.703 1.111 4.039.524a.8.8 0 0 1 1.064.42.813.813 0 0 1-.418 1.069 5.512 5.512 0 0 1-2.223.471Z"/><path fill="#F9A351" d="M44.234 60.028a3.918 3.918 0 0 1-1.581-.331.814.814 0 0 1-.419-1.07.804.804 0 0 1 1.064-.42c.739.325 1.593.242 2.286-.216a2.416 2.416 0 0 0 1.11-2.017c0-.448.361-.814.808-.814a.81.81 0 0 1 .808.813 4.041 4.041 0 0 1-1.84 3.376 4.06 4.06 0 0 1-2.236.68ZM47.502 71.678a.812.812 0 0 1-.809-.814c0-.807-.415-1.561-1.114-2.02-.693-.454-1.545-.536-2.28-.212a.806.806 0 0 1-1.065-.418.814.814 0 0 1 .416-1.07c1.236-.545 2.66-.415 3.814.34a4.041 4.041 0 0 1 1.846 3.38.812.812 0 0 1-.808.814ZM56.425 47.82H38.58a.81.81 0 0 1-.808-.813.81.81 0 0 1 .808-.813h17.844a.81.81 0 0 1 .808.813.81.81 0 0 1-.807.812ZM26.725 43.27a.807.807 0 0 1-.74-.488c-.822-1.89-.553-4.018.718-5.693 1.272-1.679 3.248-2.506 5.272-2.212 1.742.252 3.24 1.302 4.113 2.878.873 1.576.97 3.409.267 5.027a.805.805 0 0 1-1.064.42.813.813 0 0 1-.417-1.07c.5-1.15.427-2.456-.199-3.587-.627-1.13-1.694-1.882-2.931-2.06-1.442-.207-2.844.385-3.756 1.587-.91 1.2-1.106 2.717-.522 4.059a.816.816 0 0 1-.74 1.139Z"/><path fill="#F9A351" d="M38.58 47.82c-1.35 0-2.606-.693-3.363-1.851a4.056 4.056 0 0 1-.344-3.835.805.805 0 0 1 1.064-.42.815.815 0 0 1 .418 1.068c-.322.74-.24 1.598.215 2.298a2.402 2.402 0 0 0 2.01 1.114.812.812 0 0 1 0 1.625ZM23.76 47.82a.81.81 0 0 1-.809-.813.81.81 0 0 1 .809-.813c.803 0 1.555-.417 2.011-1.12a2.418 2.418 0 0 0 .212-2.29.814.814 0 0 1 .416-1.07.807.807 0 0 1 1.067.417 4.052 4.052 0 0 1-.341 3.833c-.755 1.162-2.013 1.855-3.365 1.855ZM63.837 59.195c-.267 0-.537-.02-.807-.059-1.74-.252-3.24-1.301-4.113-2.877-.875-1.576-.972-3.41-.269-5.028a.807.807 0 0 1 1.064-.419c.41.179.595.658.417 1.07-.5 1.15-.426 2.456.2 3.587.627 1.13 1.695 1.881 2.93 2.06 1.44.215 2.845-.383 3.755-1.587.91-1.2 1.107-2.717.524-4.059a.808.808 0 1 1 1.481-.652c.821 1.892.553 4.02-.718 5.695-1.103 1.455-2.73 2.269-4.464 2.269Z"/><path fill="#F9A351" d="M59.389 52.369a.815.815 0 0 1-.74-1.137c.32-.74.239-1.598-.216-2.298a2.401 2.401 0 0 0-2.008-1.115.812.812 0 0 1-.808-.814.81.81 0 0 1 .808-.812c1.35 0 2.605.692 3.36 1.85a4.053 4.053 0 0 1 .344 3.838.806.806 0 0 1-.74.488ZM68.28 52.369a.812.812 0 0 1-.742-.486c-.542-1.241-.412-2.675.34-3.833.758-1.162 2.014-1.856 3.366-1.856a.81.81 0 0 1 .808.813.81.81 0 0 1-.808.812c-.804 0-1.556.418-2.012 1.12a2.427 2.427 0 0 0-.212 2.29.816.816 0 0 1-.74 1.14ZM62.904 13.444a.808.808 0 0 1-.797-.687c-.477-3.082-2.565-5.557-5.583-6.621-3.014-1.063-6.185-.437-8.476 1.673a.807.807 0 0 1-1.143-.05.815.815 0 0 1 .05-1.149c2.738-2.522 6.516-3.27 10.104-2.008 3.591 1.264 6.075 4.22 6.645 7.905a.815.815 0 0 1-.8.937Z"/><path fill="#F9A351" d="M76.345 28.287a.815.815 0 0 1-.708-1.204c1.985-3.638 1.41-8.04-1.462-11.213-2.273-2.512-6.346-4.486-10.948-2.494a.809.809 0 0 1-1.062-.424.815.815 0 0 1 .422-1.068c4.438-1.922 9.455-.784 12.784 2.893 3.344 3.694 4.005 8.832 1.684 13.088a.81.81 0 0 1-.71.422ZM67.944 82.846c-1.016 0-2.043-.124-3.061-.379a.812.812 0 0 1-.59-.984.803.803 0 0 1 .978-.594c4.259 1.065 8.642-.484 11.455-4.034 2.804-3.539 3.318-8.176 1.336-12.1a.815.815 0 0 1 .356-1.092.806.806 0 0 1 1.088.358c2.268 4.499 1.69 9.804-1.515 13.846-2.54 3.206-6.212 4.979-10.047 4.979Z"/><path fill="#F9A351" d="M54.713 89.998a11.284 11.284 0 0 1-7.763-3.06.816.816 0 0 1-.038-1.15.807.807 0 0 1 1.143-.039c2.469 2.317 5.947 3.169 9.3 2.275 3.35-.89 5.948-3.353 6.95-6.588a.815.815 0 0 1 1.013-.535.813.813 0 0 1 .532 1.017c-1.17 3.773-4.191 6.642-8.081 7.677a11.847 11.847 0 0 1-3.056.403ZM32.098 13.444a.813.813 0 0 1-.8-.938c.572-3.684 3.054-6.638 6.642-7.9 3.596-1.267 7.37-.516 10.107 2.004.33.304.35.817.05 1.149a.809.809 0 0 1-1.143.05c-2.288-2.11-5.459-2.733-8.48-1.67-3.016 1.063-5.102 3.537-5.58 6.62a.807.807 0 0 1-.796.685Z"/><path fill="#F9A351" d="M18.66 28.287a.808.808 0 0 1-.71-.422c-2.321-4.257-1.67-9.384 1.661-13.062 3.345-3.694 8.374-4.838 12.807-2.919a.812.812 0 0 1-.64 1.492c-3.793-1.643-8.099-.653-10.972 2.52-2.275 2.512-3.847 6.77-1.439 11.187a.815.815 0 0 1-.707 1.204ZM27.055 82.847c-3.832 0-7.496-1.766-10.03-4.962-3.21-4.054-3.796-9.365-1.525-13.865a.802.802 0 0 1 1.086-.357.815.815 0 0 1 .356 1.092c-1.98 3.925-1.463 8.568 1.35 12.118 2.805 3.539 7.188 5.08 11.44 4.018a.813.813 0 0 1 .39 1.578 12.75 12.75 0 0 1-3.067.379Z"/><path fill="#F9A351" d="M40.294 90c-1.009 0-2.03-.132-3.045-.4-3.896-1.035-6.921-3.904-8.094-7.679a.813.813 0 0 1 .532-1.017.807.807 0 0 1 1.012.535c1.006 3.236 3.608 5.701 6.964 6.592 3.352.887 6.823.037 9.289-2.278a.807.807 0 0 1 1.143.039.816.816 0 0 1-.039 1.148A11.302 11.302 0 0 1 40.294 90Z"/><path fill="#F9A351" d="m16.086 65.189.142-.788-.01-.001-.132.789Zm-8.085-9.486-.8.009.8-.009Zm7.159-9.481.209.772.007-.002-.216-.77Zm.42 1.57.209.772-.209-.772Zm-5.963 7.893-.8.008.8-.008Zm6.735 7.9-.132.79.132-.79Zm.664.934-.789-.132v.004l.79.128Zm-1.979-16.771.332-.728h-.001l-.33.728Zm-6.22-12.44.782.17-.782-.17Zm9.77-8.642.07.796h.001l-.072-.796Zm.875.737-.797.067v.002l.797-.069Zm-.734.88-.07-.796h-.001l.071.797Zm-8.333 7.373.782.17-.782-.17ZM15.7 46.267l-.33.729h.001l.329-.729Zm.404 1.075-.729-.33-.003.007.732.323ZM77.987 64.52l-.789.13v.001l.79-.131Zm.665-.934.131.789-.131-.79Zm6.703-7.27-.797-.07.797.07Zm-5.932-8.525-.209.772.21-.772Zm-.57-.996.772.207V47l-.772-.204Zm.989-.574.209-.772h-.001l-.208.772Zm7.122 10.236-.797-.07v.001l.797.07Zm-8.05 8.73-.132-.788h-.007l-.007.002.146.787Zm-.018-17.846-.73.327.001.002.73-.33Zm.404-1.075.33.73.001-.001-.33-.729Zm5.457-9.716-.794.095.794-.095Zm-8.483-8.266.07-.796-.07.796Zm-.734-.88.796.072-.796-.072Zm.876-.738-.09.795.009.001.01.001.07-.797Zm9.945 9.69-.794.096.794-.095ZM79.966 47.75l.32.734.011-.005-.33-.729ZM52.352 34.32l.322-.733-.322.733Zm3.57-.202-.39-.698h-.001l.391.698Zm2.05-2.946.792.114-.792-.114Zm-1.58-3.774.485-.636-.486.636Zm-5.104-.944.735-.317v-.001l-.735.318Zm.418-1.071-.321-.733h-.002l.323.733Zm5.665.723-.487.635.487-.635Zm2.202 5.299.792.113-.792-.113Zm-2.863 4.133.39.699-.39-.699Zm-8.175-.876-.44-.668.44.668Zm3.817-.346.323-.732-.003-.001-.32.733Zm-2.931 1.705-.44-.669.44.669Zm-.881-9.49.439-.668-.44.669Zm.883-1.36-.44.67h.002l.438-.67Zm2.281.213.322.733h.002l-.324-.732ZM37.632 67.91l.487-.635-.486.635Zm-2.202-5.298-.791-.114.791.114Zm2.865-4.135.391.698-.39-.698Zm5.001-.268-.322.732h.002l.32-.733Zm.418 1.069-.734-.32.734.32Zm-1.064.419-.322.732h.001l.32-.732Zm-5.62 3.147-.792-.114.791.114Zm1.58 3.775.487-.636-.486.636Zm5.104.944-.735.316.001.004.734-.32Zm-.418 1.069-.32-.733h-.002l.322.733Zm-.643-8.935.322-.733h-.002l-.32.733Zm.645-1.49-.324.731.002.001.322-.732Zm2.286-.216-.439-.669-.002.001.441.668Zm.886 1.358-.44-.668.44.668Zm-.89 9.496.438-.67-.439.67Zm-2.28-.213-.323-.732.323.732Zm-1.066-.418-.733.32v.001l.733-.32Zm4.23-.73.439-.668-.44.669Zm-20.48-24.702.735-.318-.734.318Zm.719-5.693.637.483-.637-.483Zm5.272-2.212-.115.792.115-.792Zm3.316 8.325.322-.733h-.001l-.32.733Zm-.417-1.07.733.32.001-.001-.734-.319Zm-.199-3.587.7-.388-.7.388Zm-2.931-2.06.114-.792-.114.791Zm-3.756 1.587-.637-.484.637.484Zm-.94 5.13-.322-.733.323.733Zm8.169 2.767-.67.436v.001l.67-.437Zm-.344-3.835.734.318v-.003l-.734-.315Zm1.064-.42-.321.732.32-.733Zm.633 3.366.67-.436-.67.436Zm-10.799-.005-.67-.436.67.436Zm.212-2.291-.733.32.733-.32Zm.416-1.07.322.731.009-.004-.331-.728Zm.726 4.25-.671-.436.67.436ZM63.03 59.136l-.115.792.115-.792Zm-4.113-2.877.7-.388-.7.388Zm.795-5.447-.322.732.002.001.32-.733Zm.616 4.657-.7.387v.002l.7-.389Zm2.932 2.06.117-.791h-.003l-.114.791Zm3.754-1.587-.637-.484-.001.001.638.483Zm.94-5.13-.314-.735-.008.003.323.732Zm1.065.42-.735.316.001.002.734-.319Zm-.718 5.694-.637-.483.637.483Zm-9.236-4.625.328-.73-.005-.002-.322.732Zm-.632-3.367.671-.435v-.001l-.67.436Zm1.352-.89-.67.436v.001l.67-.438Zm8.094.006-.67-.437.67.437Zm1.353.889-.67-.436h-.001l.671.436Zm-.212 2.29.735-.317-.001-.001-.734.319Zm-.417 1.072-.322-.733-.005.003.327.73Zm-6.496-39.544.79-.121v-.001l-.79.122Zm-5.583-6.621-.266.754.266-.754Zm-8.476 1.673.542.589-.542-.589Zm-1.143-.05-.59.54.59-.54Zm.05-1.149.542.589-.542-.589ZM57.06 4.602l.266-.755-.266.755Zm6.645 7.905.79-.122-.79.122Zm-.674.928.122.79h.004l-.126-.79Zm12.927 14.751.388-.699h-.001l-.387.7Zm-.32-1.103.701.384-.701-.384ZM74.175 15.87l.593-.537-.593.537Zm-10.948-2.494.312.737.006-.003-.318-.734Zm-1.062-.424.736-.314v-.001l-.736.315Zm.422-1.068.318.734-.318-.734Zm12.784 2.893.594-.537-.594.537Zm1.684 13.088-.703-.383.703.383ZM64.883 82.467l.194-.776-.194.776Zm-.59-.984.776.193v-.002l-.776-.191Zm.978-.594-.195.776h.001l.194-.776Zm11.455-4.034.627.497-.627-.497Zm1.336-12.1.714-.36v-.001l-.714.36Zm.356-1.092-.36-.714-.004.002.364.712Zm1.088.358-.715.36.715-.36ZM77.99 77.867l-.627-.497.627.497Zm-31.04 9.07.547-.583-.001-.001-.547.584Zm-.04-1.149-.584-.546-.002.003.587.543Zm1.144-.039-.548.583.548-.583Zm9.3 2.275-.206-.773.206.773Zm6.95-6.588-.763-.238.764.238Zm1.013-.535.238-.764-.005-.002-.233.766Zm.532 1.017.764.237-.764-.237Zm-8.081 7.677-.206-.773.206.773Zm-25.797-76.16-.123.79h.005l.118-.79Zm-.674-.928-.79-.123-.001.002.79.12Zm6.642-7.902.265.755-.265-.755ZM48.047 6.61l.542-.588-.542.588Zm.05 1.149.59.54.002-.003-.592-.537Zm-1.143.05-.543.588.002.002.54-.59Zm-8.48-1.67-.266-.755.265.755Zm-5.58 6.62-.791-.123v.004l.79.119ZM17.95 27.865l-.703.383.703-.383Zm1.66-13.062-.593-.538.593.538Zm12.807-2.919-.318.735h.001l.317-.735Zm-.64 1.492-.318.734h.002l.316-.734Zm-10.972 2.52.593.537-.593-.537Zm-1.439 11.187-.702.383v.001l.702-.384Zm-.32 1.103-.387-.7-.002.001.389.7Zm-2.021 49.7-.627.496.627-.497ZM15.499 64.02l.715.36.001-.003-.716-.358Zm1.087-.358-.368.71.004.002.364-.712Zm.356 1.092-.714-.361.714.36Zm1.35 12.118-.627.497.627-.497Zm11.44 4.018-.187-.778-.006.002.194.776Zm.98.593.777-.19v-.003l-.777.193Zm-.59.985.193.776h.002l-.195-.776ZM37.25 89.6l-.205.774.205-.774Zm-8.094-7.679-.764.237.764-.237Zm.532-1.017-.237-.764h-.001l.238.764Zm1.012.535-.764.236v.001l.765-.237Zm6.964 6.592-.205.773.205-.773Zm9.289-2.278.548.583-.548-.583Zm1.143.039.587-.544-.001-.002-.586.546Zm-.039 1.148.548.584-.548-.584Zm-.554.216v-.8H47.5l-.003-.002a.014.014 0 0 1-.003-.004v-.006h-1.6a1.61 1.61 0 0 0 1.608 1.613v-.8Zm-.809-.812h.8v-15.48h-1.6v15.48h.8Zm0-15.48h.8l.001-.005a.015.015 0 0 1 .006-.007h.002v-1.6a1.61 1.61 0 0 0-1.609 1.612h.8Zm.809-.812v.8h.001s.002 0 .003.002a.014.014 0 0 1 .003.005l.001.005h1.6a1.61 1.61 0 0 0-1.608-1.612v.8Zm.808.812h-.8v15.48h1.6v-15.48h-.8Zm0 15.48h-.8v.007a.012.012 0 0 1-.003.003l-.003.002h-.002v1.6a1.61 1.61 0 0 0 1.608-1.612h-.8Zm-.808-62.384v-.8H47.5l-.003-.002a.014.014 0 0 1-.003-.005v-.005h-1.6a1.61 1.61 0 0 0 1.608 1.612v-.8Zm-.809-.812h.8V7.208h-1.6v15.94h.8Zm0-15.94h.8l.001-.006a.015.015 0 0 1 .006-.006h.002v-1.6a1.61 1.61 0 0 0-1.609 1.612h.8Zm.809-.812v.8h.001s.002 0 .003.002a.013.013 0 0 1 .004.01h1.6a1.61 1.61 0 0 0-1.608-1.612v.8Zm.808.812h-.8v15.94h1.6V7.208h-.8Zm0 15.94h-.8v.006a.014.014 0 0 1-.003.004.01.01 0 0 1-.003.002h-.002v1.6a1.61 1.61 0 0 0 1.608-1.612h-.8ZM23.76 47.819v-.8h-8.39v1.6h8.39v-.8Zm-8.39 0v-.8h-.002l-.002-.002a.014.014 0 0 1-.003-.005l-.001-.005h-1.6a1.61 1.61 0 0 0 1.608 1.612v-.8Zm-.808-.812h.8V47l.004-.004a.012.012 0 0 1 .003-.002h.001v-1.6a1.61 1.61 0 0 0-1.608 1.612h.8Zm.808-.813v.8h8.39v-1.6h-8.39v.8Zm8.39 0v.8h.002l.002.003a.014.014 0 0 1 .003.004l.001.006h1.6a1.61 1.61 0 0 0-1.608-1.613v.8Zm.808.813h-.8v.006a.013.013 0 0 1-.003.004.007.007 0 0 1-.003.002h-.002v1.6a1.61 1.61 0 0 0 1.608-1.612h-.8ZM16.221 65.2v-.8l.007.001-.142.788-.14.787c.099.018.192.024.275.024v-.8Zm-.135-.011.132-.79c-4.174-.697-7.372-4.444-7.418-8.705l-.8.009-.8.009c.055 5.03 3.81 9.44 8.755 10.266l.131-.79Zm-8.085-9.486.8-.009c-.043-3.996 2.726-7.661 6.568-8.7l-.21-.772-.208-.772c-4.55 1.23-7.801 5.54-7.75 10.262l.8-.009Zm7.159-9.481.216.77h-.005c-.002 0-.002 0 0 .001a.015.015 0 0 1 .007.01l.773-.207.773-.208a1.607 1.607 0 0 0-1.98-1.136l.216.77Zm.991.574-.773.207a.015.015 0 0 1 .001.006.015.015 0 0 1-.005.01h-.003l.21.773.209.772a1.613 1.613 0 0 0 1.134-1.976l-.773.208Zm-.57.996-.21-.773c-3.847 1.04-6.594 4.684-6.554 8.674l.8-.008.8-.008c-.033-3.266 2.232-6.265 5.372-7.113l-.209-.772Zm-5.964 7.893-.8.008c.045 4.254 3.22 7.983 7.403 8.681l.132-.789.131-.79c-3.412-.568-6.03-3.635-6.066-7.118l-.8.008Zm6.735 7.9-.132.79h.002s.002 0 .003.003a.013.013 0 0 1 .002.005v.004l.79.132.788.133a1.611 1.611 0 0 0-1.322-1.856l-.131.789Zm.664.934-.79-.128v.005l-.003.002c-.003.003-.004.002-.002.002V66c.777 0 1.457-.564 1.585-1.352l-.79-.129Zm-1.646-16.7v-.8h-.003l.002.001-.332.728-.332.727c.217.1.447.144.665.144v-.8Zm-.333-.071.33-.729c-4.362-1.98-6.793-6.836-5.768-11.54l-.782-.171-.782-.17c-1.184 5.437 1.618 11.045 6.671 13.338l.331-.728Zm-6.22-12.44.782.17c.94-4.325 4.671-7.623 9.058-8.016l-.07-.796-.072-.797c-5.088.455-9.392 4.264-10.48 9.27l.782.169Zm9.77-8.642.071.796h.012c.001 0 .002 0 0 0a.018.018 0 0 1-.006-.003l-.002-.003.003.014.797-.067.798-.066a1.594 1.594 0 0 0-1.746-1.468l.072.797Zm.875.737-.797.07v.006a.016.016 0 0 1-.006.008s.001 0 0 0l.07.797.07.797a1.611 1.611 0 0 0 1.46-1.747l-.797.07Zm-.734.88-.071-.796c-4.39.394-8.105 3.68-9.044 7.999l.782.17.782.17c.79-3.64 3.932-6.414 7.623-6.745l-.072-.797Zm-8.333 7.373-.782-.17c-1.022 4.693 1.395 9.53 5.756 11.51l.331-.729.33-.728c-3.67-1.666-5.716-5.753-4.853-9.713l-.782-.17ZM15.7 46.267l-.329.73h.001l.003.005.001.006v.004l.728.33.73.329a1.612 1.612 0 0 0-.805-2.133l-.329.73Zm.404 1.075-.732-.323c0 .002 0 .002 0 0h.001-.003v1.6a1.6 1.6 0 0 0 1.466-.955l-.732-.322ZM78.783 65.2v-.8l-.002-.001a.01.01 0 0 1-.002-.003s-.002-.002-.002-.007l-.79.132-.789.131c.131.786.808 1.348 1.585 1.348v-.8Zm-.796-.679.79-.13v-.006a.018.018 0 0 1 .005-.01v.001h.001l-.131-.79-.131-.788a1.612 1.612 0 0 0-1.323 1.853l.79-.13Zm.665-.934.132.789c3.93-.657 7.022-4.01 7.368-7.99l-.797-.069-.797-.07c-.283 3.256-2.83 6.015-6.038 6.55l.132.79Zm6.703-7.27.797.07c.37-4.24-2.424-8.262-6.52-9.368l-.209.773-.208.772c3.341.902 5.646 4.21 5.343 7.684l.797.07Zm-5.932-8.525.21-.773h-.004l-.003-.004a.016.016 0 0 1-.002-.006l.001-.006-.772-.207-.773-.208a1.613 1.613 0 0 0 1.134 1.976l.21-.772Zm-.57-.996.773.204a.018.018 0 0 1 .002-.005l.001-.001h.005l.208-.772.208-.773a1.604 1.604 0 0 0-1.97 1.142l.773.205Zm.989-.574-.209.772c4.089 1.104 6.905 5.149 6.534 9.395l.797.07.797.07c.438-5.013-2.868-9.772-7.71-11.08l-.209.773Zm7.122 10.236-.797-.069c-.347 3.981-3.46 7.356-7.385 8.01l.132.79.132.789c4.648-.775 8.305-4.745 8.715-9.45l-.797-.07Zm-8.05 8.73-.146-.786.015-.002V66c.083 0 .177-.006.277-.025l-.146-.786Zm.72-17.369v-.8h-.002a.012.012 0 0 1-.004-.003l-.003-.004-.729.33-.729.329c.27.596.855.948 1.466.948v-.8Zm-.738-.477.73-.328-.001-.005.001-.007.003-.005h.001l-.33-.73-.33-.728a1.615 1.615 0 0 0-.804 2.13l.73-.327Zm.404-1.075.331.729c4.016-1.823 6.447-6.153 5.92-10.54l-.794.095-.794.095c.444 3.698-1.614 7.36-4.993 8.893l.33.728Zm5.457-9.716.794-.095c-.571-4.771-4.439-8.542-9.206-8.967l-.071.796-.072.797c4.01.358 7.278 3.538 7.76 7.564l.795-.095Zm-8.483-8.266.07-.797h-.002l-.003-.002a.016.016 0 0 1-.002-.005v-.004l-.797-.072-.797-.072a1.61 1.61 0 0 0 1.46 1.75l.07-.797Zm-.734-.88.796.072v.003a.05.05 0 0 1 .02-.019c.001 0 .002 0 0 0a.08.08 0 0 1-.03.001l.09-.795.09-.795c-.871-.099-1.683.576-1.763 1.461l.797.072Zm.876-.738-.071.797c4.767.426 8.65 4.207 9.222 8.989l.794-.095.794-.095c-.66-5.527-5.142-9.899-10.668-10.393l-.071.797Zm9.945 9.69-.794.096c.529 4.395-1.915 8.745-5.931 10.568l.33.728.331.729c4.654-2.113 7.47-7.131 6.858-12.216l-.794.096ZM79.966 47.75l-.319-.733a.035.035 0 0 1-.014.003v1.6c.221 0 .443-.045.653-.136l-.32-.734Zm-.333.07v-.8h-8.39v1.6h8.39v-.8Zm-8.39 0v-.8h-.001l-.003-.002a.014.014 0 0 1-.003-.005v-.005h-1.6a1.61 1.61 0 0 0 1.608 1.612v-.8Zm-.808-.812h.8l.001-.006.003-.004.003-.002h.002v-1.6a1.61 1.61 0 0 0-1.609 1.612h.8Zm.809-.813v.8h8.39v-1.6h-8.39v.8Zm8.39 0v.8h.001l.003.003a.014.014 0 0 1 .003.004v.006h1.6a1.61 1.61 0 0 0-1.608-1.613v.8Zm.808.813h-.8l-.001.006a.014.014 0 0 1-.003.004l-.003.002h-.002v1.6a1.61 1.61 0 0 0 1.609-1.612h-.8Zm-32.94 9.78v-.8H47.5l-.003-.003a.014.014 0 0 1-.003-.004v-.006h-1.6a1.61 1.61 0 0 0 1.608 1.613v-.8Zm-.809-.813h.8V38.04h-1.6v17.935h.8Zm0-17.935h.8l.001-.005c0-.002.002-.003.003-.005a.012.012 0 0 1 .003-.002h.002v-1.6a1.61 1.61 0 0 0-1.609 1.612h.8Zm.809-.812v.8h.001s.002 0 .003.002a.014.014 0 0 1 .003.005l.001.005h1.6a1.61 1.61 0 0 0-1.608-1.612v.8Zm.808.812h-.8v17.934h1.6V38.039h-.8Zm0 17.934h-.8v.007a.017.017 0 0 1-.004.005.009.009 0 0 1-.003.002h-.001v1.6c.893 0 1.608-.727 1.608-1.614h-.8Zm5.615-19.698v-.8a4.719 4.719 0 0 1-1.898-.4l-.321.732-.322.732a6.318 6.318 0 0 0 2.541.536v-.8Zm-2.22-.468.32-.733s0-.001 0 0l-.003-.005a.016.016 0 0 1 0-.014l-.734-.317-.734-.318c-.35.81.013 1.762.831 2.12l.32-.733Zm-.417-1.07.735.318v-.002l.004-.002h.004l.321-.733.322-.732a1.607 1.607 0 0 0-2.12.834l.734.318Zm1.064-.419-.321.733c1.38.607 2.948.513 4.283-.236l-.392-.698-.391-.698c-.913.512-1.952.565-2.857.167l-.322.733Zm3.57-.201.391.698c1.335-.747 2.235-2.033 2.451-3.53l-.792-.114-.791-.114c-.143.99-.737 1.851-1.65 2.362l.391.698Zm2.05-2.946.792.114c.25-1.744-.467-3.438-1.887-4.524l-.486.636-.486.635c.977.747 1.44 1.877 1.276 3.026l.791.113Zm-1.58-3.774.485-.636c-1.414-1.08-3.234-1.333-4.848-.621l.323.732.323.732c1.054-.465 2.258-.315 3.23.428l.486-.635Zm-4.04-.525-.321-.733h-.007v-.003l-.736.317-.734.316a1.606 1.606 0 0 0 2.12.836l-.322-.733Zm-1.064-.42.735-.317a.016.016 0 0 1-.002-.007.022.022 0 0 1 .005-.012l.002-.002-.322-.732-.323-.732a1.616 1.616 0 0 0-.829 2.12l.734-.317Zm.418-1.07.32.733c1.609-.704 3.417-.481 4.858.625l.487-.635.487-.635c-1.893-1.451-4.318-1.764-6.473-.821l.32.733Zm5.665.723-.486.635c1.446 1.108 2.145 2.805 1.896 4.55l.792.114.792.113c.333-2.333-.614-4.597-2.508-6.047l-.486.635Zm2.202 5.299-.792-.114c-.214 1.498-1.106 2.79-2.462 3.549l.39.698.391.698c1.782-.996 2.978-2.716 3.265-4.718l-.792-.113Zm-2.863 4.133-.39-.699a4.913 4.913 0 0 1-2.395.637v1.6c1.093 0 2.18-.286 3.174-.839l-.39-.699Zm-9.208 3.315v-.8H47.5l-.003-.002a.015.015 0 0 1-.003-.005v-.006h-1.6a1.61 1.61 0 0 0 1.608 1.613v-.8Zm-.809-.813h.8c0-1.081.549-2.095 1.482-2.71l-.44-.668-.44-.668a4.843 4.843 0 0 0-2.202 4.046h.8Zm1.842-3.378.44.669a3.21 3.21 0 0 1 3.057-.282l.32-.733.32-.733a4.81 4.81 0 0 0-4.576.41l.439.67Zm3.817-.346-.322.732.003.002s.002.002.002.005a.02.02 0 0 1 .002.007.02.02 0 0 1-.002.008l.735.317.734.317a1.616 1.616 0 0 0-.829-2.12l-.323.732Zm.418 1.071-.735-.317a.013.013 0 0 1-.002.004l-.002.001h-.006l-.32.733-.319.733a1.606 1.606 0 0 0 2.118-.837l-.734-.317Zm-1.064.42.321-.732a3.189 3.189 0 0 0-3.046.278l.44.668.44.668a1.59 1.59 0 0 1 1.523-.149l.322-.732Zm-2.285.214-.44-.668c-.911.6-1.47 1.602-1.47 2.687h1.6c0-.526.27-1.035.75-1.351l-.44-.668Zm-1.11 2.02h-.8c0 .005-.002.006-.002.007 0 0 0 .002-.002.003l-.002.002h-.003v1.6c.89 0 1.608-.72 1.608-1.613h-.8Zm2.458-10.835v-.8c-.617 0-1.239-.181-1.79-.543l-.44.669-.438.668a4.86 4.86 0 0 0 2.668.806v-.8Zm-2.23-.674.44-.67a3.247 3.247 0 0 1-1.486-2.713h-1.6c0 1.633.831 3.148 2.208 4.052l.439-.67Zm-1.846-3.383h.8l.001-.005.002-.004a.01.01 0 0 1 .003-.002h.003v-1.6a1.61 1.61 0 0 0-1.609 1.61h.8Zm.809-.811v.8h.002s.002 0 .003.002a.01.01 0 0 1 .003.004v.005h1.6a1.61 1.61 0 0 0-1.608-1.611v.8Zm.808.81h-.8c0 1.087.56 2.091 1.473 2.692l.44-.668.44-.669a1.627 1.627 0 0 1-.753-1.354h-.8Zm1.113 2.024-.439.67c.91.595 2.048.713 3.042.275l-.322-.732-.322-.733c-.474.21-1.041.165-1.521-.15l-.438.67Zm2.281.213.324.731h-.002l.004.002a.01.01 0 0 1 .004.001l.734-.317.734-.318a1.608 1.608 0 0 0-2.122-.831l.324.732Zm1.064.417-.734.318a.019.019 0 0 1 .002.008c0 .002 0 .005-.002.008a.01.01 0 0 1-.002.004l.32.733.32.733a1.615 1.615 0 0 0 .83-2.122l-.734.318Zm-.416 1.07-.325-.73a3.094 3.094 0 0 1-1.258.264v1.6c.647 0 1.298-.13 1.908-.402l-.325-.731ZM41.073 69.104v-.8c-1.03 0-2.06-.343-2.954-1.028l-.486.635-.487.636c1.165.891 2.535 1.357 3.927 1.357v-.8Zm-3.44-1.193.486-.635c-1.448-1.107-2.146-2.804-1.897-4.55l-.792-.113-.792-.113c-.332 2.332.612 4.596 2.509 6.047l.486-.636Zm-2.203-5.298.792.114c.216-1.499 1.109-2.793 2.464-3.551l-.39-.698-.391-.699c-1.782.997-2.978 2.718-3.266 4.72l.791.114Zm2.865-4.135.392.697c1.354-.759 2.911-.838 4.288-.233l.321-.733.322-.732c-1.847-.812-3.932-.696-5.714.303l.391.698Zm5.001-.268-.32.732.002.002.002.004a.015.015 0 0 1 .002.006l-.002.005.734.32.733.32a1.613 1.613 0 0 0-.83-2.123l-.32.733Zm.418 1.069-.734-.32-.003.005-.002.002h-.002l-.003-.001-.32.733-.321.733a1.606 1.606 0 0 0 2.118-.834l-.733-.318Zm-1.064.419.32-.733c-1.378-.604-2.943-.512-4.279.234l.39.699.39.698c.915-.51 1.953-.562 2.857-.166l.322-.732Zm-3.569.2-.39-.699c-1.337.747-2.237 2.034-2.453 3.532l.791.114.792.114c.143-.99.737-1.852 1.65-2.363l-.39-.698Zm-2.052 2.947-.792-.113c-.249 1.745.468 3.437 1.888 4.523l.486-.635.486-.636c-.977-.747-1.44-1.875-1.276-3.026l-.792-.113Zm1.582 3.775-.487.635c1.417 1.085 3.234 1.33 4.847.622l-.321-.733-.322-.732c-1.058.465-2.258.317-3.231-.428l-.486.636Zm4.039.524.325.731h.003-.003.002c0 .001 0 .003.002.005l.735-.316.734-.317a1.6 1.6 0 0 0-2.124-.833l.326.73Zm1.064.42-.734.32.002.005s0 .003-.002.005a.013.013 0 0 1-.002.005h-.002l.32.734.32.733a1.613 1.613 0 0 0 .83-2.122l-.732.32Zm-.418 1.069-.322-.732c-.615.27-1.26.403-1.9.403v1.6a6.31 6.31 0 0 0 2.545-.539l-.323-.732Zm.938-8.604v-.8c-.43 0-.857-.087-1.259-.264l-.322.733-.322.732c.61.268 1.256.4 1.903.4v-.8Zm-1.581-.331.32-.733-.002-.002-.003-.004a.019.019 0 0 1-.001-.007l.001-.006-.734-.317-.734-.318a1.615 1.615 0 0 0 .833 2.12l.32-.733Zm-.419-1.07.734.318a.014.014 0 0 1 .004-.005l.002-.002c.002 0 .002 0 0 0h-.001l.325-.731.324-.732a1.604 1.604 0 0 0-2.122.835l.734.318Zm1.064-.42-.322.732c.999.44 2.14.32 3.05-.28l-.442-.668-.44-.668a1.59 1.59 0 0 1-1.524.151l-.322.733Zm2.286-.216.44.668c.912-.599 1.47-1.6 1.47-2.685h-1.6c0 .527-.27 1.034-.749 1.348l.44.669Zm1.11-2.017h.8v-.006a.017.017 0 0 1 .007-.008v-1.6c-.893 0-1.608.73-1.608 1.614h.8Zm.808-.814v.8h.001l.003.003a.015.015 0 0 1 .003.004l.001.006h1.6a1.61 1.61 0 0 0-1.608-1.613v.8Zm.808.813h-.8c0 1.08-.547 2.094-1.48 2.708l.44.668.44.668a4.841 4.841 0 0 0 2.2-4.044h-.8Zm-1.84 3.376-.44-.668a3.26 3.26 0 0 1-1.796.547v1.6a4.86 4.86 0 0 0 2.677-.811l-.44-.668Zm1.032 12.33v-.8H47.5l-.003-.003a.016.016 0 0 1-.004-.005.014.014 0 0 1 0-.007h-1.6c0 .885.714 1.614 1.608 1.614v-.8Zm-.809-.815h.8c0-1.088-.56-2.088-1.475-2.688l-.439.669-.438.668c.482.317.752.824.752 1.351h.8Zm-1.114-2.02.44-.668c-.91-.597-2.048-.714-3.042-.276l.323.732.322.732c.474-.209 1.04-.164 1.519.15l.438-.67Zm-2.28-.212-.322-.732-.003.001a.008.008 0 0 1-.004-.002l-.003-.006-.733.321-.733.321a1.606 1.606 0 0 0 2.122.829l-.323-.732Zm-1.065-.418.733-.32a.014.014 0 0 1 0-.012.014.014 0 0 1 .003-.005l.002-.002-.322-.732-.323-.732a1.614 1.614 0 0 0-.826 2.123l.733-.32Zm.416-1.07.322.732c.981-.432 2.12-.334 3.053.278l.439-.67.438-.668c-1.372-.9-3.082-1.062-4.575-.405l.323.732Zm3.814.34-.44.67a3.241 3.241 0 0 1 1.486 2.71h1.6a4.84 4.84 0 0 0-2.207-4.048l-.44.669Zm1.846 3.38h-.8v.007a.018.018 0 0 1-.005.005c-.001.002-.003.002-.003.002.001 0 0 0 0 0v1.6c.894 0 1.608-.73 1.608-1.614h-.8Zm8.115-23.045v-.8H38.58v1.6h17.845v-.8Zm-17.845 0v-.8h-.002l-.003-.002a.014.014 0 0 1-.003-.005v-.005h-1.6a1.61 1.61 0 0 0 1.608 1.612v-.8Zm-.808-.812h.8V47l.003-.004a.012.012 0 0 1 .003-.002h.002v-1.6a1.61 1.61 0 0 0-1.608 1.612h.8Zm.808-.813v.8h17.844v-1.6H38.58v.8Zm17.844 0v.8h.001l.003.003a.014.014 0 0 1 .003.004l.001.006h1.6a1.61 1.61 0 0 0-1.608-1.613v.8Zm.808.813h-.8l-.001.007a.017.017 0 0 1-.003.004l-.002.001s.001 0 0 0v1.6a1.61 1.61 0 0 0 1.606-1.612h-.8ZM26.725 43.27v-.8s-.002 0-.003-.002h-.001l-.002-.004-.734.318-.734.319c.263.606.853.969 1.474.969v-.8Zm-.74-.488.733-.319c-.703-1.617-.479-3.44.622-4.89l-.637-.484-.638-.484c-1.44 1.9-1.754 4.335-.814 6.496l.734-.319Zm.718-5.693.637.483c1.103-1.454 2.794-2.154 4.52-1.903l.115-.792.115-.791c-2.322-.338-4.583.617-6.025 2.52l.638.483Zm5.272-2.212-.114.792c1.486.215 2.772 1.11 3.528 2.474l.7-.388.7-.388c-.991-1.788-2.703-2.993-4.7-3.281l-.114.791Zm4.113 2.878-.7.388c.756 1.364.835 2.935.233 4.32l.734.32.734.318c.805-1.852.69-3.945-.3-5.734l-.7.388Zm.267 5.027-.734-.317c0 .002-.001.002-.002.003l-.002.002h-.002l-.002-.001-.322.733-.321.732c.819.36 1.767-.018 2.12-.834l-.735-.318Zm-1.064.42.32-.734h-.001l-.003-.005a.015.015 0 0 1 0-.006v-.005l-.733-.32-.733-.32a1.613 1.613 0 0 0 .83 2.123l.32-.733Zm-.417-1.07.734.319c.602-1.386.509-2.953-.233-4.294l-.7.388-.7.387c.51.922.563 1.967.165 2.882l.734.318Zm-.199-3.587.7-.389c-.743-1.338-2.022-2.247-3.517-2.463l-.114.791-.114.792c.978.142 1.835.736 2.346 1.657l.7-.388Zm-2.931-2.06.113-.792c-1.742-.25-3.426.471-4.506 1.895l.637.484.637.483c.744-.98 1.863-1.442 3.006-1.279l.113-.792Zm-3.756 1.587-.637-.483c-1.079 1.422-1.322 3.244-.619 4.86l.734-.318.733-.32c-.464-1.066-.316-2.277.426-3.256l-.637-.483Zm-.522 4.059-.734.317a.017.017 0 0 1 0 .014.016.016 0 0 1-.003.006l-.003.001.323.733.322.732c.815-.36 1.18-1.31.829-2.121l-.734.318Zm-.417 1.07-.323-.731v1.6c.212 0 .433-.043.646-.137l-.323-.731ZM38.58 47.82v-.8c-1.071 0-2.08-.548-2.693-1.488l-.67.438-.67.437c.9 1.377 2.404 2.213 4.033 2.213v-.8Zm-3.363-1.85.67-.437a3.256 3.256 0 0 1-.28-3.08l-.734-.318-.734-.318a4.856 4.856 0 0 0 .408 4.59l.67-.437Zm-.344-3.835.735.315.001-.002.002-.002h.002l.003.001.32-.733.321-.733c-.82-.359-1.77.021-2.12.839l.736.315Zm1.064-.42-.32.732.001.001.003.005a.018.018 0 0 1 .001.007l-.001.006.734.317.735.318a1.615 1.615 0 0 0-.833-2.12l-.32.733Zm.418 1.068-.733-.319c-.434.997-.318 2.138.278 3.053l.67-.436.67-.437a1.627 1.627 0 0 1-.151-1.541l-.734-.32Zm.215 2.298-.67.436a3.202 3.202 0 0 0 2.68 1.478v-1.6c-.522 0-1.026-.27-1.34-.75l-.67.436Zm2.01 1.114v.8h.001l.003.003a.018.018 0 0 1 .003.005l.001.006h1.6c0-.884-.714-1.614-1.608-1.614v.8Zm.808.814h-.8v.006l-.002.003a.006.006 0 0 1-.003.002h-.003v1.6c.892 0 1.608-.723 1.608-1.61h-.8Zm-15.628.811v-.8h-.002l-.002-.002a.014.014 0 0 1-.004-.005v-.005h-1.6a1.61 1.61 0 0 0 1.608 1.612v-.8Zm-.809-.812h.8l.001-.006.004-.004a.012.012 0 0 1 .003-.002h.001v-1.6a1.61 1.61 0 0 0-1.609 1.612h.8Zm.809-.813v.8c1.087 0 2.086-.565 2.682-1.483l-.67-.436-.672-.436c-.315.485-.82.755-1.34.755v.8Zm2.011-1.12.671.437c.594-.914.709-2.054.274-3.047l-.733.32-.733.32c.21.479.165 1.052-.15 1.535l.671.436Zm.212-2.29.733-.32a.015.015 0 0 1 0-.013.014.014 0 0 1 .003-.004l.002-.002-.322-.732-.323-.732a1.614 1.614 0 0 0-.826 2.123l.733-.32Zm.416-1.07.33.727-.002.001h-.004c-.002 0-.002 0 0 0a.02.02 0 0 1 .011.012l.732-.323.731-.324c-.353-.799-1.3-1.2-2.13-.822l.332.728Zm1.067.417-.734.319c.43.989.333 2.139-.278 3.078l.67.436.671.436a4.853 4.853 0 0 0 .404-4.588l-.733.319Zm-.341 3.833-.671-.436c-.612.941-1.621 1.491-2.694 1.491v1.6c1.63 0 3.137-.837 4.035-2.22l-.67-.435Zm36.712 13.23v-.8c-.228 0-.46-.016-.693-.05l-.114.792-.114.792c.307.044.615.067.92.067v-.8Zm-.807-.058.115-.792c-1.486-.215-2.773-1.11-3.529-2.473l-.7.388-.7.387c.992 1.789 2.705 2.993 4.7 3.282l.114-.792Zm-4.113-2.877.7-.389c-.758-1.363-.837-2.935-.235-4.32l-.734-.319-.733-.319c-.805 1.852-.69 3.946.302 5.735l.7-.388Zm-.269-5.028.735.317v-.001l.003-.002a.01.01 0 0 1 .004 0c-.001 0 0 0 0 0l.322-.733.323-.732a1.606 1.606 0 0 0-2.121.835l.734.316Zm1.064-.419-.32.733h.001l.002.005a.016.016 0 0 1 0 .014l.734.317.735.318a1.614 1.614 0 0 0-.831-2.12l-.32.733Zm.417 1.07-.733-.32c-.602 1.387-.51 2.954.232 4.294l.7-.387.7-.387c-.51-.922-.562-1.968-.165-2.882l-.734-.319Zm.2 3.587-.7.389c.743 1.338 2.023 2.247 3.516 2.463l.115-.792.114-.792c-.977-.14-1.835-.736-2.346-1.657l-.7.389Zm2.93 2.06-.117.791c1.744.26 3.433-.471 4.51-1.896l-.638-.482-.638-.483c-.744.984-1.865 1.448-2.999 1.279l-.117.791Zm3.755-1.587.637.483c1.079-1.42 1.324-3.243.62-4.861l-.733.319-.734.319c.464 1.067.315 2.279-.427 3.256l.637.484Zm.524-4.059.734-.318-.002-.006c0-.002 0-.005.002-.008a.016.016 0 0 1 .003-.005l.003-.002-.323-.732-.323-.732a1.616 1.616 0 0 0-.829 2.12l.735-.317Zm.417-1.07.315.734a.018.018 0 0 1 .008-.001h.005v.001l.001.001.735-.317.734-.316a1.608 1.608 0 0 0-2.114-.838l.316.735Zm1.064.418-.734.32c.703 1.619.479 3.441-.621 4.892l.637.483.637.484c1.441-1.9 1.754-4.334.815-6.497l-.734.318Zm-.718 5.695-.638-.483c-.956 1.262-2.352 1.952-3.826 1.952v1.6c1.992 0 3.853-.938 5.101-2.585l-.637-.483Zm-8.912-4.557v-.8h-.002a.03.03 0 0 1 .006.002l-.328.73-.327.73c.215.096.438.138.65.138v-.8Zm-.324-.068.323-.733c-.002 0-.003-.001-.003-.002l-.003-.004a.017.017 0 0 1-.001-.006l.002-.007-.735-.318-.734-.317c-.351.812.015 1.76.829 2.119l.322-.732Zm-.417-1.07.734.318c.432-.996.316-2.136-.278-3.05l-.67.435-.672.435c.315.486.361 1.062.152 1.544l.734.318Zm-.215-2.297.671-.436a3.201 3.201 0 0 0-2.679-1.479v1.6c.52 0 1.025.27 1.338.751l.67-.436Zm-2.008-1.115v-.8s-.001 0 0 0c0 0-.002 0-.003-.002a.016.016 0 0 1-.004-.006.013.013 0 0 1-.001-.006h-1.6c0 .885.714 1.614 1.608 1.614v-.8Zm-.808-.814h.8V47a.015.015 0 0 1 .007-.007h.001v-1.6a1.61 1.61 0 0 0-1.608 1.612h.8Zm.808-.812v.8c1.071 0 2.078.548 2.69 1.487l.67-.436.67-.437c-.898-1.378-2.4-2.214-4.03-2.214v.8Zm3.36 1.85-.67.438c.613.938.711 2.09.28 3.082l.734.318.734.32a4.853 4.853 0 0 0-.408-4.595l-.67.438Zm.344 3.838-.734-.317a.016.016 0 0 1-.001.003h-.001a.009.009 0 0 1-.004.002v1.6c.617 0 1.21-.359 1.475-.97l-.735-.318Zm8.15.488v-.8c.001 0 0 0 0 0a.016.016 0 0 1-.005-.003l-.002-.001-.001-.002-.733.32-.733.32c.264.606.858.966 1.475.966v-.8Zm-.741-.486.733-.32c-.43-.988-.333-2.137.279-3.077l-.671-.436-.67-.436c-.897 1.377-1.057 3.094-.404 4.589l.733-.32Zm.34-3.833.671.437c.614-.943 1.622-1.493 2.695-1.493v-1.6c-1.632 0-3.136.839-4.035 2.22l.67.436Zm3.366-1.856v.8h.001l.003.003a.016.016 0 0 1 .003.004l.001.006h1.6a1.61 1.61 0 0 0-1.608-1.613v.8Zm.808.813h-.8v.006a.016.016 0 0 1-.004.004l-.003.002h-.001v1.6a1.61 1.61 0 0 0 1.608-1.612h-.8Zm-.808.812v-.8c-1.087 0-2.086.566-2.683 1.484l.671.436.671.436c.315-.486.82-.756 1.34-.756v-.8Zm-2.012 1.12-.671-.435c-.592.913-.706 2.052-.274 3.045l.733-.32.734-.318a1.628 1.628 0 0 1 .15-1.537l-.672-.435Zm-.212 2.29-.734.319a.016.016 0 0 1 .002.006c0 .002 0 .005-.002.008a.014.014 0 0 1-.003.005l-.002.002.322.732.323.732c.815-.36 1.18-1.31.829-2.12l-.735.317Zm-.417 1.072-.327-.73a.03.03 0 0 1 .005-.002h-.001v1.6c.213 0 .435-.042.65-.138l-.327-.73Zm-5.7-38.857v-.8c.001 0 0 0 0 0l-.002-.002c-.002 0-.002-.002-.002-.002l-.001-.004-.791.12-.791.122a1.608 1.608 0 0 0 1.588 1.366v-.8Zm-.796-.687.79-.122c-.523-3.384-2.82-6.095-6.107-7.254l-.266.755-.266.754c2.75.97 4.628 3.208 5.058 5.99l.79-.123Zm-5.583-6.621.266-.755c-3.284-1.158-6.768-.478-9.284 1.84l.542.588.542.589c2.066-1.904 4.924-2.475 7.668-1.508l.266-.754Zm-8.476 1.673-.542-.588a.017.017 0 0 1-.002.001h-.002a.01.01 0 0 1-.003 0s-.002 0-.004-.004l-.59.54-.59.542a1.607 1.607 0 0 0 2.275.098l-.542-.589Zm-1.143-.05.591-.54-.003-.004v-.012l.004-.004-.542-.589-.542-.588a1.615 1.615 0 0 0-.099 2.276l.591-.54Zm.05-1.149.542.589c2.514-2.316 5.98-3.01 9.296-1.842l.266-.755.266-.755c-3.86-1.358-7.95-.553-10.912 2.175l.542.588ZM57.06 4.602l-.266.754c3.32 1.17 5.596 3.887 6.12 7.273l.791-.122.79-.123c-.616-3.984-3.307-7.177-7.17-8.537l-.265.755Zm6.645 7.905-.79.121v.005a.018.018 0 0 1-.004.007.017.017 0 0 1-.004.004h-.002l.126.79.126.79a1.615 1.615 0 0 0 1.339-1.839l-.79.122Zm-.674.928-.122-.791h-.004v1.6c.086 0 .167-.006.248-.019l-.122-.79Zm13.315 14.852v-.8l-.388.7-.389.699c.245.136.511.201.777.201v-.8Zm-.388-.1.387-.7-.004-.003a.017.017 0 0 1-.002-.006l-.001-.006.001-.005-.701-.384-.702-.384a1.615 1.615 0 0 0 .635 2.188l.387-.7Zm-.32-1.104.702.383c2.156-3.95 1.519-8.719-1.57-12.133l-.594.537-.593.537c2.653 2.932 3.168 6.967 1.352 10.293l.703.383ZM74.175 15.87l.593-.537c-2.433-2.688-6.856-4.857-11.859-2.691l.318.734.318.734c4.2-1.818 7.923-.038 10.037 2.297l.593-.537Zm-10.948-2.494-.312-.737a.018.018 0 0 1-.007.002h-.005l-.002-.002v-.001l-.736.314-.736.314a1.609 1.609 0 0 0 2.11.847l-.312-.737Zm-1.062-.424.735-.315a.011.011 0 0 1-.001-.005.021.021 0 0 1 .005-.013l-.317-.735-.318-.734a1.615 1.615 0 0 0-.84 2.117l.736-.315Zm.422-1.068.318.734c4.112-1.78 8.766-.737 11.873 2.695l.593-.536.593-.537c-3.55-3.922-8.93-5.153-13.695-3.09l.318.734Zm12.784 2.893-.593.536c3.124 3.453 3.727 8.223 1.574 12.168l.703.384.702.383c2.49-4.566 1.77-10.07-1.792-14.008l-.594.537Zm1.684 13.088-.703-.383c0 .002-.002.002-.002.003h-.001l-.004.002v1.6a1.61 1.61 0 0 0 1.412-.84l-.703-.382Zm-9.111 54.98v-.8c-.95 0-1.912-.115-2.867-.354l-.194.776-.194.776a13.39 13.39 0 0 0 3.255.403v-.8Zm-3.061-.378.194-.776-.004-.001-.003-.004a.015.015 0 0 1-.001-.005v-.005l-.776-.193-.777-.194a1.612 1.612 0 0 0 1.173 1.954l.194-.776Zm-.59-.984.777.19c0-.004.002-.006.003-.007l.002-.002h-.002l.003.001.195-.776.195-.775a1.603 1.603 0 0 0-1.95 1.177l.777.192Zm.978-.594-.194.777c4.577 1.143 9.277-.529 12.276-4.314l-.627-.497-.627-.497c-2.627 3.315-6.694 4.74-10.634 3.755l-.194.776Zm11.455-4.034.627.497c2.99-3.775 3.55-8.745 1.423-12.958l-.714.36-.714.362c1.836 3.635 1.368 7.939-1.249 11.242l.627.497Zm1.336-12.1.714-.361-.002-.004.001-.007.003-.005.003-.002-.364-.713-.363-.712a1.615 1.615 0 0 0-.706 2.165l.714-.361Zm.356-1.092.36.714.007-.002h.003v.001l.003.004.715-.36.714-.36a1.606 1.606 0 0 0-2.163-.711l.36.714Zm1.088.358-.715.36c2.124 4.212 1.59 9.184-1.427 12.99l.627.496.627.497c3.392-4.28 4.015-9.918 1.602-14.704l-.714.36ZM77.99 77.867l-.627-.496c-2.394 3.02-5.838 4.675-9.42 4.675v1.6c4.087 0 7.987-1.891 10.674-5.282l-.627-.497ZM54.713 89.998v-.8c-2.674 0-5.242-.99-7.215-2.844l-.548.583-.547.583a12.084 12.084 0 0 0 8.31 3.278v-.8Zm-7.763-3.06.547-.585-.002-.002v-.014c0-.001.001-.003.004-.005l-.587-.544-.587-.543c-.6.648-.572 1.667.079 2.276l.546-.584Zm-.038-1.15.584.547c.002-.003.004-.003.004-.003l.003-.001h.002l.002.001.548-.583.548-.582a1.607 1.607 0 0 0-2.275.075l.584.546Zm1.143-.039-.548.584c2.677 2.511 6.441 3.427 10.054 2.464l-.206-.773-.206-.773c-3.094.825-6.285.037-8.547-2.085l-.547.583Zm9.3 2.275.205.773c3.609-.959 6.424-3.62 7.51-7.125l-.764-.236-.764-.237c-.92 2.964-3.301 5.23-6.393 6.052l.206.773Zm6.95-6.588.765.236.005-.004a.023.023 0 0 1 .007-.002h.003l.233-.765.233-.766a1.615 1.615 0 0 0-2.01 1.063l.765.238Zm1.013-.535-.239.764h.003l.003.004a.014.014 0 0 1 .001.006v.007l.764.236.764.236a1.613 1.613 0 0 0-1.058-2.017l-.238.764Zm.532 1.017-.764-.237c-1.086 3.504-3.892 6.175-7.523 7.141l.206.773.206.773c4.15-1.104 7.387-4.171 8.639-8.213l-.764-.237Zm-8.081 7.677-.206-.773c-.95.254-1.907.376-2.85.376v1.6c1.081 0 2.178-.14 3.262-.43l-.206-.773Zm-25.67-76.15v-.8l-.01-.002-.117.791-.118.792c.08.011.16.018.244.018v-.8Zm-.127-.01.123-.791h-.001l-.002-.003a.016.016 0 0 1-.003-.013l-.791-.121-.791-.121a1.613 1.613 0 0 0 1.342 1.839l.123-.79Zm-.674-.928.79.123c.526-3.387 2.8-6.103 6.117-7.27l-.265-.755-.266-.755c-3.859 1.358-6.548 4.55-7.167 8.534l.79.123Zm6.642-7.902.265.755c3.325-1.17 6.788-.475 9.3 1.839l.542-.589.542-.588c-2.96-2.727-7.048-3.533-10.915-2.171l.266.754ZM48.047 6.61l-.542.589.003.003v.014a.016.016 0 0 1-.004.005l.593.538.592.537a1.617 1.617 0 0 0-.1-2.274l-.542.588Zm.05 1.149-.59-.54-.003.002H47.5a.01.01 0 0 1-.004 0l-.003-.002-.54.59-.54.59c.652.598 1.669.56 2.272-.1l-.59-.54Zm-1.143.05.542-.588c-2.514-2.319-5.998-2.994-9.288-1.837l.265.755.266.755c2.753-.969 5.61-.399 7.672 1.503l.543-.588Zm-8.48-1.67-.267-.755c-3.284 1.158-5.579 3.87-6.104 7.252l.79.123.791.122c.432-2.782 2.309-5.02 5.055-5.988l-.266-.754Zm-5.58 6.62-.792-.12v.001l-.001.002c-.004.003-.005.002-.003.002v1.6c.782 0 1.467-.571 1.587-1.367l-.791-.118ZM18.66 28.287v-.8a.01.01 0 0 1-.004-.001l-.003-.005-.702.384-.703.383c.292.535.843.84 1.412.84v-.8Zm-.71-.422.703-.383c-2.154-3.95-1.558-8.708 1.551-12.143l-.593-.536-.593-.537c-3.552 3.923-4.26 9.417-1.77 13.982l.703-.383Zm1.661-13.062.593.537c3.125-3.45 7.79-4.499 11.896-2.721l.318-.735.318-.734c-4.76-2.06-10.152-.821-13.718 3.115l.593.538Zm12.807-2.919-.317.735a.01.01 0 0 1 .002.001l.003.004.001.005-.002.006.735.317.735.316a1.612 1.612 0 0 0-.84-2.118l-.317.734Zm.422 1.068-.735-.317-.001.003v.001l-.004.002h-.006l-.316.735-.316.735c.812.35 1.76-.023 2.113-.843l-.735-.316Zm-1.062.424.318-.734c-4.123-1.786-8.791-.698-11.883 2.717l.593.537.593.537c2.654-2.932 6.598-3.823 10.061-2.323l.318-.734Zm-10.972 2.52-.593-.537c-2.435 2.689-4.163 7.311-1.548 12.107l.702-.383.702-.383c-2.2-4.037-.785-7.931 1.33-10.267l-.593-.537Zm-1.439 11.187-.702.384.002.005a.018.018 0 0 1-.004.012l-.003.002.387.7.387.7a1.615 1.615 0 0 0 .635-2.187l-.702.384Zm-.32 1.103-.389-.699c-.001 0-.001 0 0 0a.01.01 0 0 1 .002 0v1.6c.265 0 .532-.066.775-.201l-.388-.7Zm8.008 54.661v-.8c-3.58 0-7.016-1.648-9.402-4.659l-.627.497-.627.497c2.68 3.382 6.572 5.265 10.656 5.265v-.8Zm-10.03-4.962.628-.497c-3.024-3.818-3.564-8.796-1.44-13.007l-.714-.36-.714-.36c-2.415 4.786-1.784 10.431 1.614 14.721l.627-.497ZM15.5 64.02l.715.358.002-.003.003-.001-.003-.001.369-.71.368-.71a1.602 1.602 0 0 0-2.17.71l.715.358Zm1.086-.357-.364.713a.008.008 0 0 1 .003.002l.003.005.001.007-.001.004.714.36.714.362a1.615 1.615 0 0 0-.706-2.165l-.364.712Zm.356 1.092-.715-.36c-2.126 4.214-1.562 9.19 1.438 12.975l.627-.497.627-.497c-2.628-3.315-3.098-7.624-1.263-11.26l-.714-.361Zm1.35 12.118-.627.497c2.992 3.775 7.692 5.437 12.261 4.297l-.193-.776-.194-.776c-3.936.982-8.002-.436-10.62-3.739l-.627.497Zm11.44 4.018.188.778h.005a.018.018 0 0 1 .01.005l.001.003.776-.193.777-.193a1.613 1.613 0 0 0-1.944-1.178l.188.778Zm.98.593-.777.19.001.008a.019.019 0 0 1-.002.006l-.004.004-.003.001.195.776.195.776a1.614 1.614 0 0 0 1.172-1.951l-.777.19Zm-.59.985-.192-.777c-.962.239-1.925.356-2.875.356v1.6c1.081 0 2.174-.134 3.26-.403l-.193-.776ZM40.294 90v-.8c-.94 0-1.892-.123-2.84-.373l-.205.773-.204.774c1.08.285 2.17.426 3.249.426V90Zm-3.045-.4.206-.773c-3.637-.966-6.447-3.638-7.536-7.143l-.764.237-.764.238c1.256 4.043 4.497 7.11 8.653 8.215l.205-.774Zm-8.094-7.679.765-.236a.016.016 0 0 1-.001-.007c0-.001 0-.003.002-.005 0-.003.002-.004.002-.004l.003-.001-.239-.764-.238-.763a1.613 1.613 0 0 0-1.058 2.016l.764-.236Zm.532-1.017.238.764h.005c.002 0 .002.001.003.002l.002.005.765-.236.764-.236a1.606 1.606 0 0 0-2.014-1.063l.237.764Zm1.012.535-.764.237c1.09 3.507 3.908 6.169 7.523 7.128l.205-.773.205-.774c-3.098-.821-5.483-3.09-6.405-6.056l-.764.238Zm6.964 6.592-.204.773c3.61.956 7.367.042 10.04-2.468l-.547-.583-.548-.584c-2.258 2.121-5.443 2.907-8.536 2.088l-.205.774Zm9.289-2.278.548.583.001-.001h.006l.003.002.585-.545.586-.546a1.607 1.607 0 0 0-2.277-.076l.548.583Zm1.143.039-.587.543a.014.014 0 0 1 .004.006V86.354l-.004.004.548.582.548.583c.649-.61.68-1.626.078-2.275l-.587.544Zm-.039 1.148-.547-.583a10.501 10.501 0 0 1-7.215 2.843v1.6c3.07 0 6.03-1.14 8.31-3.276l-.548-.584Z" mask="url(#a)"/></svg>