<svg xmlns="http://www.w3.org/2000/svg" width="94" height="94" fill="none" viewBox="0 0 94 94"><path fill="#F9A351" d="M89.598 14.076a7.806 7.806 0 0 0-5.96-2.756h-9.047l.467-1.939h.222a4.696 4.696 0 0 0 4.691-4.69A4.696 4.696 0 0 0 75.281 0H18.775a4.696 4.696 0 0 0-4.691 4.69 4.696 4.696 0 0 0 4.69 4.692h.222l.463 1.938h-9.1a7.806 7.806 0 0 0-5.958 2.756 7.804 7.804 0 0 0-1.756 6.327c.959 5.849 3.095 14.359 7.82 21.835v30.134c-.034 1.086 1.313 1.782 2.18 1.125l6.217-4.418 6.218 4.418c.866.657 2.214-.039 2.18-1.125v-16.46a30.826 30.826 0 0 0 6.899 1.384 19.472 19.472 0 0 0 7.546 4.098v18.4a4.234 4.234 0 0 1-3.494 4.172l-4.542.811a12.037 12.037 0 0 0-9.066 7.32c-.386.869.325 1.93 1.276 1.903h42.296c.994.028 1.697-1.114 1.238-1.993a12.046 12.046 0 0 0-9.048-7.245l-4.517-.8a4.233 4.233 0 0 1-3.5-4.174v-18.41a19.48 19.48 0 0 0 7.49-4.082 30.82 30.82 0 0 0 6.957-1.402v16.478c-.035 1.086 1.313 1.782 2.178 1.125l6.218-4.418 6.218 4.418c.867.657 2.213-.04 2.179-1.125V60.637a1.38 1.38 0 1 0-2.76 0V69.7l-4.838-3.438a1.38 1.38 0 0 0-1.598 0L69.555 69.7V54.83a28.464 28.464 0 0 0 3.54-1.885c2.853-1.79 5.442-4.117 7.735-6.937v9.11a1.38 1.38 0 1 0 2.76 0v-12.97c4.685-7.454 6.808-15.92 7.763-21.745a7.805 7.805 0 0 0-1.755-6.326Zm-17.001 5.522h10.498c-.75 4.326-2.57 11.993-6.67 18.394-2.852 4.453-6.384 7.6-10.524 9.386.015-.059.032-.117.046-.176l6.65-27.604ZM6.505 15.863a5.051 5.051 0 0 1 3.856-1.784h9.76l.661 2.76H10.361c-1.38-.033-2.525 1.317-2.27 2.671a64.204 64.204 0 0 0 2.447 9.898c.557 1.711 3.21.802 2.615-.88a61.302 61.302 0 0 1-2.249-8.93h10.539l6.603 27.578.052.202c-4.14-1.787-7.672-4.933-10.524-9.386a38.065 38.065 0 0 1-2.435-4.462 1.38 1.38 0 1 0-2.502 1.164 40.802 40.802 0 0 0 2.614 4.786c3.665 5.721 8.384 9.512 14.034 11.278a19.434 19.434 0 0 0 1.955 3.344c-3.202-.636-6.174-1.803-8.869-3.494-3.628-2.277-6.805-5.52-9.444-9.64-4.569-7.132-6.632-15.362-7.559-21.011a5.05 5.05 0 0 1 1.137-4.094ZM24.5 69.7l-4.839-3.438a1.38 1.38 0 0 0-1.598 0L13.226 69.7V46.078c2.279 2.789 4.849 5.091 7.678 6.867a28.463 28.463 0 0 0 3.597 1.91V69.7Zm26.167-10.74a1.38 1.38 0 0 0-1.077 1.346v19.482a6.99 6.99 0 0 0 5.776 6.89l4.517.8a9.294 9.294 0 0 1 5.968 3.762H28.207a9.286 9.286 0 0 1 5.947-3.746l4.543-.811a6.99 6.99 0 0 0 5.768-6.89V60.32a1.38 1.38 0 0 0-1.082-1.347C37.177 57.6 32.21 52.718 30.73 46.533L21.834 9.382h34.67a1.38 1.38 0 1 0 0-2.76H18.776a1.934 1.934 0 0 1-1.932-1.931c0-1.065.867-1.932 1.932-1.932H75.28c1.065 0 1.932.867 1.932 1.932a1.934 1.934 0 0 1-1.932 1.931H62.022a1.38 1.38 0 1 0 0 2.76H72.22l-8.955 37.174A16.73 16.73 0 0 1 50.668 58.96Zm37.963-39.003c-.927 5.649-2.99 13.88-7.559 21.011-2.639 4.12-5.816 7.363-9.444 9.64-2.695 1.69-5.667 2.858-8.869 3.493a19.426 19.426 0 0 0 1.955-3.343c5.65-1.766 10.37-5.557 14.035-11.278 4.542-7.09 6.435-15.555 7.159-19.97.255-1.355-.892-2.704-2.27-2.672H73.262l.665-2.759h9.713c3.03-.073 5.554 2.9 4.992 5.878Z"/><path fill="#F9A351" d="M58.216 30.698a3.346 3.346 0 0 0 .852-3.45 3.346 3.346 0 0 0-2.718-2.292l-4.059-.59a.607.607 0 0 1-.457-.332l-1.815-3.678a3.346 3.346 0 0 0-3.02-1.877c-1.29 0-2.447.72-3.018 1.877l-1.815 3.678a.607.607 0 0 1-.457.332l-4.06.59a3.346 3.346 0 0 0-2.717 2.291 3.346 3.346 0 0 0 .852 3.451l2.937 2.863c.143.14.208.34.174.538l-.693 4.042a3.346 3.346 0 0 0 1.34 3.293 3.346 3.346 0 0 0 3.545.256l3.63-1.908a.607.607 0 0 1 .565 0l3.63 1.908a3.345 3.345 0 0 0 3.546-.256 3.346 3.346 0 0 0 1.34-3.293l-.694-4.042a.607.607 0 0 1 .175-.538l2.937-2.863Zm-4.863.887a3.366 3.366 0 0 0-.968 2.98l.693 4.043c.02.575-.34.837-.881.64l-3.63-1.909a3.367 3.367 0 0 0-3.134 0l-3.63 1.909c-.54.197-.902-.065-.881-.64l.693-4.043a3.366 3.366 0 0 0-.968-2.98l-2.937-2.863c-.355-.453-.217-.877.337-1.036l4.059-.59a3.366 3.366 0 0 0 2.534-1.84l1.815-3.679c.322-.477.768-.478 1.09 0l1.815 3.678a3.366 3.366 0 0 0 2.534 1.842l4.06.59c.553.158.69.582.336 1.035l-2.937 2.863Z"/></svg>