<svg xmlns="http://www.w3.org/2000/svg" width="94" height="94" fill="none" viewBox="0 0 94 94"><path fill="#F9A351" d="M91.184 40.513a7.544 7.544 0 0 0-7.558-7.547H71.962l6.34-12.756a9.29 9.29 0 1 0-11.848-6.664l-12.271 19.42H9.516a7.56 7.56 0 0 0-7.558 7.547 7.47 7.47 0 0 0 4.477 6.883v.8a39.794 39.794 0 0 0 16.687 32.561 5.235 5.235 0 0 0-1.867 4.008v1.56a5.249 5.249 0 0 0 5.248 5.248h39.154a5.256 5.256 0 0 0 5.256-5.249v-1.559a5.208 5.208 0 0 0-1.454-3.603 40.351 40.351 0 0 0 17.249-32.965v-.786a7.519 7.519 0 0 0 4.477-6.898ZM69.678 14.7a1.671 1.671 0 0 0 .17-1.426 5.951 5.951 0 1 1 6.926 3.897 1.674 1.674 0 0 0-1.13.885l-7.41 14.91h-10.1L69.677 14.7Zm-2.106 71.62a1.913 1.913 0 0 1-1.917 1.908H26.5a1.909 1.909 0 0 1-1.909-1.908v-1.56a1.909 1.909 0 0 1 1.909-1.908c42.887 0 38.966-.022 39.53.038a1.9 1.9 0 0 1 1.541 1.866v1.564Zm15.796-38.124A36.984 36.984 0 0 1 65.873 79.52c-.203-.01 1.567 0-38.619-.005C8.625 68.013 9.81 48.196 9.774 48.071h73.594v.126Zm.258-3.464H9.516a4.212 4.212 0 1 1 0-8.424h74.11a4.212 4.212 0 1 1 0 8.425Z"/><path fill="#F9A351" d="M22.478 27.51h10.34a10.826 10.826 0 0 0 10.815-10.815v-1.987a1.671 1.671 0 0 0-1.67-1.67h-5.17a10.79 10.79 0 0 0-2.036.2 14.868 14.868 0 0 0-6.175-10.994 1.668 1.668 0 0 0-1.867 0 14.866 14.866 0 0 0-6.175 10.994 10.806 10.806 0 0 0-2.036-.2h-5.17a1.67 1.67 0 0 0-1.67 1.67v1.987A10.826 10.826 0 0 0 22.478 27.51Zm17.815-11.132v.317a7.483 7.483 0 0 1-7.474 7.474h-3.5v-.316a7.484 7.484 0 0 1 7.473-7.475h3.5ZM27.648 5.73a11.944 11.944 0 0 1 3.83 8.713 10.789 10.789 0 0 0-3.83 3.646 10.784 10.784 0 0 0-3.83-3.646 11.943 11.943 0 0 1 3.83-8.713ZM15.004 16.378h3.5a7.483 7.483 0 0 1 7.474 7.475v.316h-3.5a7.483 7.483 0 0 1-7.474-7.474v-.317ZM39.334 69.28h1.75v1.752a5.488 5.488 0 0 0 10.974 0v-1.751h1.75a5.487 5.487 0 1 0 0-10.975h-1.75v-1.75a5.487 5.487 0 1 0-10.974 0v1.75h-1.75a5.488 5.488 0 0 0 0 10.975Zm0-7.633h3.42a1.67 1.67 0 0 0 1.67-1.67v-3.42a2.147 2.147 0 1 1 4.294 0v3.42a1.67 1.67 0 0 0 1.67 1.67h3.42a2.147 2.147 0 0 1 0 4.294h-3.42a1.67 1.67 0 0 0-1.67 1.67v3.421a2.147 2.147 0 1 1-4.294 0v-3.421a1.67 1.67 0 0 0-1.67-1.67h-3.42a2.147 2.147 0 1 1 0-4.294Z"/></svg>